<svg width="214" height="173" viewBox="0 0 214 173" fill="none" xmlns="http://www.w3.org/2000/svg">
<mask id="path-1-inside-1_521_8029" fill="white">
<path d="M0 0H213.5V172.044H0V0Z"/>
</mask>
<path d="M213.5 172.044V171.344H0V172.044V172.744H213.5V172.044Z" fill="#EFF4F4" mask="url(#path-1-inside-1_521_8029)"/>
<path d="M79.7715 29.0422C80.8433 29.0268 81.5388 29.3236 82.167 30.2004C91.1831 42.786 100.256 55.3315 109.221 67.9534C110.142 69.2508 111.128 69.1903 112.418 69.0676V29.177H130.083C129.371 29.4865 128.814 29.7401 128.249 29.9719C125.716 31.0104 124.324 32.9556 124.144 35.6213C123.941 38.6167 123.914 41.6277 123.903 44.6321C123.869 54.467 123.904 64.3022 123.856 74.137C123.834 78.741 124.709 82.721 129.931 84.2131C126.094 84.2131 122.257 84.2131 118.421 84.2131C114.766 84.2131 111.111 84.1643 107.458 84.2434C106.364 84.2671 105.71 83.9067 105.093 83.0452C96.2347 70.6751 87.3497 58.3243 78.4697 45.97C78.2944 45.7261 78.1011 45.4944 77.6846 44.9602C77.6846 45.8056 77.6846 46.3114 77.6846 46.8167C77.6847 55.8993 77.6791 64.982 77.6934 74.0647C77.695 75.0816 77.8068 76.0989 77.873 77.1155C78.0934 80.4953 79.8133 82.6908 83.0596 83.6868C83.2986 83.7602 83.5154 83.9061 84.1387 84.2131C83.2527 84.2131 82.7594 84.213 82.2666 84.2131C74.3125 84.2158 66.3584 84.2187 58.4043 84.22C58.2438 84.22 58.0833 84.2014 57.9229 84.1917C57.9942 84.0853 58.0655 83.9786 58.248 83.8245C62.3084 82.6097 63.8049 79.7373 63.8066 75.8674C63.8124 63.0228 63.8122 50.1779 63.7891 37.3333C63.7817 33.2685 62.1157 30.3378 57.9639 29.0686C60.8261 29.0686 63.6885 29.0686 66.5508 29.0686C70.9578 29.0686 75.3654 29.1058 79.7715 29.0422ZM91.0898 16.8274C104.529 16.8275 117.969 16.7316 131.406 16.8987C134.626 16.9387 137.927 17.54 141.029 18.4397C146.32 19.9743 149.357 23.8478 150.573 29.1506C151.498 33.1814 151.497 37.2292 150.641 41.2854C149.352 47.3866 145.481 50.9398 139.631 52.5754C139.117 52.7191 138.598 52.8432 137.805 53.0481C143.52 59.5635 147.12 67.8073 155.577 71.9065C155.033 71.9335 154.656 71.9678 154.28 71.968C148.367 71.9714 142.454 71.9417 136.541 71.9993C135.553 72.0089 135.002 71.6771 134.464 70.9026C132.112 67.515 129.696 64.1719 127.323 60.7991C127.058 60.4221 126.743 59.9598 126.74 59.5354C126.701 54.1758 126.715 48.8158 126.715 43.2151C128.135 43.2151 129.431 43.356 130.686 43.1897C135.715 42.5227 138.21 38.7132 137.237 33.3264C136.543 29.4824 134.119 27.2655 129.961 27.1877C123.034 27.0581 116.102 27.1526 109.062 27.1526V54.8518C107.904 53.1923 107.013 51.9214 106.127 50.6477C102.762 45.8117 99.3665 40.9958 96.0654 36.1165C95.5399 35.3396 95.233 34.2865 95.1787 33.3411C94.9789 29.8608 95.0114 26.3663 94.7715 22.8899C94.6983 21.8293 94.0305 20.8099 93.5586 19.6799C92.0982 18.6629 90.7149 17.7368 89.3555 16.8274C89.8559 16.8274 90.4729 16.8274 91.0898 16.8274Z" fill="rgba(34, 56, 98, 1)"/>
<path d="M35.6521 121.244V119.418H38.4681V121.244H35.6521ZM31.8681 126.282C31.6775 126.282 31.4795 126.268 31.2741 126.238C31.0541 126.224 30.8341 126.209 30.6141 126.194L30.7901 124.368C31.0101 124.383 31.2155 124.398 31.4061 124.412C31.5821 124.427 31.7288 124.434 31.8461 124.434C32.5061 124.434 33.0341 124.185 33.4301 123.686C33.8408 123.188 34.0461 122.491 34.0461 121.596V110.222H36.1141V121.596C36.1141 122.52 35.9308 123.334 35.5641 124.038C35.1975 124.742 34.6988 125.292 34.0681 125.688C33.4375 126.084 32.7041 126.282 31.8681 126.282ZM38.4681 121.244V119.418C38.5561 119.418 38.6295 119.44 38.6881 119.484C38.7468 119.528 38.7908 119.587 38.8201 119.66C38.8495 119.734 38.8715 119.829 38.8861 119.946C38.9008 120.049 38.9081 120.174 38.9081 120.32C38.9081 120.452 38.9008 120.577 38.8861 120.694C38.8715 120.812 38.8495 120.914 38.8201 121.002C38.7908 121.076 38.7468 121.134 38.6881 121.178C38.6295 121.222 38.5561 121.244 38.4681 121.244ZM49.4986 121.244V119.418H51.8746V121.244H49.4986ZM38.4766 121.244C38.3886 121.244 38.3152 121.222 38.2566 121.178C38.1979 121.134 38.1539 121.076 38.1246 121.002C38.0952 120.914 38.0732 120.812 38.0586 120.694C38.0439 120.577 38.0366 120.452 38.0366 120.32C38.0366 120.13 38.0512 119.968 38.0806 119.836C38.0952 119.704 38.1392 119.602 38.2126 119.528C38.2712 119.455 38.3592 119.418 38.4766 119.418V121.244ZM38.4766 121.244V119.418H48.1126L47.4526 119.968V114.886C47.4526 113.962 47.1592 113.266 46.5726 112.796C46.0006 112.327 45.1059 112.092 43.8886 112.092C43.5219 112.092 42.9939 112.122 42.3046 112.18C41.6299 112.239 40.9112 112.327 40.1486 112.444L39.9286 110.772C40.5299 110.626 41.1826 110.501 41.8866 110.398C42.5906 110.281 43.2726 110.222 43.9326 110.222C45.0766 110.222 46.0592 110.406 46.8806 110.772C47.7166 111.139 48.3619 111.674 48.8166 112.378C49.2712 113.068 49.4986 113.904 49.4986 114.886V121.244H38.4766ZM51.8746 121.244V119.418C51.9626 119.418 52.0286 119.44 52.0726 119.484C52.1312 119.528 52.1752 119.587 52.2046 119.66C52.2486 119.734 52.2779 119.829 52.2926 119.946C52.3072 120.049 52.3146 120.174 52.3146 120.32C52.3146 120.452 52.3072 120.577 52.2926 120.694C52.2779 120.812 52.2486 120.914 52.2046 121.002C52.1752 121.076 52.1312 121.134 52.0726 121.178C52.0286 121.222 51.9626 121.244 51.8746 121.244ZM43.0306 125.402V123.268H45.0986V125.402H43.0306ZM56.6128 121.244V119.418H59.0988V121.244H56.6128ZM59.0988 121.244V119.418C59.1868 119.418 59.2601 119.44 59.3188 119.484C59.3775 119.528 59.4215 119.587 59.4508 119.66C59.4801 119.734 59.5021 119.829 59.5168 119.946C59.5315 120.049 59.5388 120.174 59.5388 120.32C59.5388 120.452 59.5315 120.577 59.5168 120.694C59.5021 120.812 59.4801 120.914 59.4508 121.002C59.4215 121.076 59.3775 121.134 59.3188 121.178C59.2601 121.222 59.1868 121.244 59.0988 121.244ZM51.8828 121.244C51.7948 121.244 51.7215 121.222 51.6628 121.178C51.6041 121.134 51.5601 121.076 51.5308 121.002C51.5015 120.914 51.4795 120.812 51.4648 120.694C51.4501 120.577 51.4428 120.452 51.4428 120.32C51.4428 120.13 51.4575 119.968 51.4868 119.836C51.5015 119.704 51.5455 119.602 51.6188 119.528C51.6775 119.455 51.7655 119.418 51.8828 119.418V121.244ZM51.8828 121.244V119.418H55.6228L54.5668 120.254V110.222H56.6128V121.244H51.8828ZM52.9388 108.242V106.108H54.9628V108.242H52.9388ZM56.2168 108.242V106.108H58.2408V108.242H56.2168ZM71.7296 121.244V119.418H74.0836V121.244H71.7296ZM59.1016 121.244C59.0136 121.244 58.9402 121.222 58.8816 121.178C58.8229 121.134 58.7789 121.076 58.7496 121.002C58.7202 120.914 58.6982 120.812 58.6836 120.694C58.6689 120.577 58.6616 120.452 58.6616 120.32C58.6616 120.13 58.6762 119.968 58.7056 119.836C58.7202 119.704 58.7642 119.602 58.8376 119.528C58.8962 119.455 58.9842 119.418 59.1016 119.418V121.244ZM59.1016 121.244V119.418H70.9596L69.6616 120.386V115.832C69.6616 114.864 69.5516 114.109 69.3316 113.566C69.1262 113.024 68.7596 112.635 68.2316 112.4C67.7036 112.166 66.9849 112.048 66.0756 112.048C65.4596 112.048 64.8509 112.092 64.2496 112.18C63.6482 112.268 63.1789 112.386 62.8416 112.532L64.0956 111.3C64.0076 111.638 63.9196 112.07 63.8316 112.598C63.7436 113.126 63.6702 113.698 63.6116 114.314C63.5529 114.916 63.5236 115.517 63.5236 116.118C63.5236 116.72 63.5529 117.314 63.6116 117.9C63.6702 118.487 63.7362 119 63.8096 119.44C63.8829 119.88 63.9416 120.181 63.9856 120.342L62.0276 120.892C61.9689 120.702 61.8956 120.372 61.8076 119.902C61.7342 119.433 61.6609 118.868 61.5876 118.208C61.5289 117.548 61.4996 116.852 61.4996 116.118C61.4996 115.4 61.5289 114.703 61.5876 114.028C61.6609 113.339 61.7416 112.716 61.8296 112.158C61.9322 111.601 62.0276 111.154 62.1156 110.816C62.4529 110.684 62.9736 110.552 63.6776 110.42C64.3962 110.288 65.1956 110.222 66.0756 110.222C67.3222 110.222 68.3636 110.406 69.1996 110.772C70.0502 111.139 70.6809 111.733 71.0916 112.554C71.5169 113.361 71.7296 114.454 71.7296 115.832V121.244H59.1016ZM74.0836 121.244V119.418C74.1716 119.418 74.2449 119.44 74.3036 119.484C74.3622 119.528 74.4062 119.587 74.4356 119.66C74.4649 119.734 74.4869 119.829 74.5016 119.946C74.5162 120.049 74.5236 120.174 74.5236 120.32C74.5236 120.452 74.5162 120.577 74.5016 120.694C74.4869 120.812 74.4649 120.914 74.4356 121.002C74.4062 121.076 74.3622 121.134 74.3036 121.178C74.2449 121.222 74.1716 121.244 74.0836 121.244ZM76.6942 121.244V105.536H78.7402V121.244H76.6942ZM74.0762 121.244V119.418H76.6942V121.244H74.0762ZM74.0762 121.244C73.9882 121.244 73.9148 121.222 73.8562 121.178C73.7975 121.134 73.7535 121.076 73.7242 121.002C73.6948 120.914 73.6728 120.812 73.6582 120.694C73.6435 120.577 73.6362 120.452 73.6362 120.32C73.6362 120.13 73.6508 119.968 73.6802 119.836C73.6948 119.704 73.7388 119.602 73.8122 119.528C73.8708 119.455 73.9588 119.418 74.0762 119.418V121.244ZM82.4606 121.244V105.536H84.5066V121.244H82.4606ZM92.2726 121.244V116.03C92.2726 114.622 92.4852 113.493 92.9106 112.642C93.3359 111.792 93.9666 111.176 94.8026 110.794C95.6532 110.413 96.7019 110.222 97.9486 110.222C99.2099 110.222 100.259 110.413 101.095 110.794C101.931 111.176 102.561 111.792 102.987 112.642C103.412 113.493 103.625 114.622 103.625 116.03V121.244H92.2726ZM94.3186 120.32L93.2846 119.418H102.613L101.579 120.32V116.074C101.579 115.062 101.469 114.263 101.249 113.676C101.043 113.09 100.669 112.679 100.127 112.444C99.5986 112.195 98.8726 112.07 97.9486 112.07C97.0246 112.07 96.2986 112.195 95.7706 112.444C95.2426 112.679 94.8686 113.09 94.6486 113.676C94.4286 114.263 94.3186 115.062 94.3186 116.074V120.32ZM95.3086 108.242V106.108H97.3326V108.242H95.3086ZM98.5866 108.242V106.108H100.611V108.242H98.5866ZM104.872 126.282C104.681 126.282 104.483 126.268 104.278 126.238C104.058 126.224 103.838 126.209 103.618 126.194L103.794 124.368C104.014 124.383 104.219 124.398 104.41 124.412C104.586 124.427 104.733 124.434 104.85 124.434C105.51 124.434 106.038 124.185 106.434 123.686C106.845 123.188 107.05 122.491 107.05 121.596V110.222H109.118V121.596C109.118 122.52 108.935 123.334 108.568 124.038C108.201 124.742 107.703 125.292 107.072 125.688C106.441 126.084 105.708 126.282 104.872 126.282ZM112.711 121.244V105.536H114.757V121.244H112.711ZM117.71 121.244V119.418H125.85L124.288 120.804V116.294C124.288 115.224 124.163 114.38 123.914 113.764C123.679 113.148 123.291 112.716 122.748 112.466C122.205 112.202 121.472 112.07 120.548 112.07H118.766V110.222H120.548C121.765 110.222 122.807 110.42 123.672 110.816C124.537 111.198 125.197 111.836 125.652 112.73C126.107 113.61 126.334 114.798 126.334 116.294V121.244H117.71ZM129.619 121.244V105.536H131.665V121.244H129.619ZM139.981 128.548C139.834 127.727 139.702 126.942 139.585 126.194C139.482 125.446 139.431 124.801 139.431 124.258C139.431 123.261 139.607 122.396 139.959 121.662C140.325 120.944 140.846 120.394 141.521 120.012C142.195 119.616 142.995 119.418 143.919 119.418C144.168 119.418 144.513 119.418 144.953 119.418C145.393 119.418 145.899 119.418 146.471 119.418C147.057 119.418 147.666 119.418 148.297 119.418C148.942 119.418 149.573 119.418 150.189 119.418L148.891 120.584V115.832C148.891 114.879 148.781 114.131 148.561 113.588C148.355 113.046 147.981 112.657 147.439 112.422C146.911 112.188 146.185 112.07 145.261 112.07C144.659 112.07 144.058 112.114 143.457 112.202C142.855 112.276 142.386 112.386 142.049 112.532L143.303 111.3C143.215 111.652 143.127 112.1 143.039 112.642C142.965 113.17 142.899 113.735 142.841 114.336C142.797 114.938 142.775 115.532 142.775 116.118C142.775 116.72 142.797 117.314 142.841 117.9C142.899 118.487 142.958 119 143.017 119.44C143.09 119.88 143.149 120.181 143.193 120.342L141.257 120.892C141.198 120.702 141.125 120.372 141.037 119.902C140.949 119.433 140.868 118.876 140.795 118.23C140.736 117.57 140.707 116.866 140.707 116.118C140.707 115.4 140.743 114.703 140.817 114.028C140.89 113.339 140.971 112.716 141.059 112.158C141.161 111.601 141.257 111.154 141.345 110.816C141.682 110.684 142.203 110.552 142.907 110.42C143.625 110.288 144.417 110.222 145.283 110.222C146.075 110.222 146.779 110.296 147.395 110.442C148.011 110.589 148.539 110.809 148.979 111.102C149.433 111.396 149.807 111.762 150.101 112.202C150.394 112.642 150.607 113.17 150.739 113.786C150.871 114.388 150.937 115.077 150.937 115.854V121.244C150.321 121.244 149.653 121.244 148.935 121.244C148.231 121.244 147.541 121.244 146.867 121.244C146.192 121.244 145.591 121.244 145.063 121.244C144.549 121.244 144.168 121.244 143.919 121.244C143.684 121.244 143.427 121.274 143.149 121.332C142.87 121.406 142.599 121.538 142.335 121.728C142.085 121.934 141.88 122.234 141.719 122.63C141.557 123.041 141.477 123.584 141.477 124.258C141.477 124.816 141.528 125.446 141.631 126.15C141.733 126.869 141.851 127.668 141.983 128.548H139.981ZM156.673 121.244V119.418H159.313V121.244H156.673ZM154.627 121.244V105.536H156.673V121.244H154.627ZM159.313 121.244V119.418C159.386 119.418 159.452 119.44 159.511 119.484C159.569 119.528 159.613 119.587 159.643 119.66C159.672 119.734 159.694 119.829 159.709 119.946C159.738 120.049 159.753 120.174 159.753 120.32C159.753 120.452 159.738 120.577 159.709 120.694C159.694 120.812 159.672 120.914 159.643 121.002C159.613 121.076 159.569 121.134 159.511 121.178C159.452 121.222 159.386 121.244 159.313 121.244ZM173.737 121.244V119.418H176.113V121.244H173.737ZM159.305 121.244V119.418H174.111L172.263 121.046V116.008C172.263 115.114 172.138 114.38 171.889 113.808C171.654 113.222 171.295 112.789 170.811 112.51C170.327 112.217 169.725 112.07 169.007 112.07C168.376 112.07 167.782 112.18 167.225 112.4C166.667 112.62 166.154 112.914 165.685 113.28C165.215 113.632 164.775 114.021 164.365 114.446C163.954 114.872 163.58 115.297 163.243 115.722C162.92 116.148 162.627 116.529 162.363 116.866L161.747 115.15C162.245 114.52 162.737 113.918 163.221 113.346C163.705 112.76 164.225 112.232 164.783 111.762C165.355 111.293 165.985 110.919 166.675 110.64C167.379 110.362 168.185 110.222 169.095 110.222C170.121 110.222 170.972 110.398 171.647 110.75C172.321 111.102 172.849 111.564 173.231 112.136C173.627 112.708 173.905 113.339 174.067 114.028C174.228 114.703 174.309 115.363 174.309 116.008V121.244H159.305ZM160.779 119.418V105.536H162.825V119.418H160.779ZM159.305 121.244C159.217 121.244 159.143 121.222 159.085 121.178C159.026 121.134 158.982 121.076 158.953 121.002C158.923 120.914 158.901 120.812 158.887 120.694C158.872 120.577 158.865 120.452 158.865 120.32C158.865 120.13 158.879 119.968 158.909 119.836C158.923 119.704 158.967 119.602 159.041 119.528C159.099 119.455 159.187 119.418 159.305 119.418V121.244ZM176.113 121.244V119.418C176.201 119.418 176.274 119.44 176.333 119.484C176.391 119.528 176.435 119.587 176.465 119.66C176.494 119.734 176.516 119.829 176.531 119.946C176.545 120.049 176.553 120.174 176.553 120.32C176.553 120.452 176.545 120.577 176.531 120.694C176.516 120.812 176.494 120.914 176.465 121.002C176.435 121.076 176.391 121.134 176.333 121.178C176.274 121.222 176.201 121.244 176.113 121.244ZM166.873 108.242V106.108H168.941V108.242H166.873ZM176.105 121.244V119.418H179.515L178.459 120.254V110.222H180.527V121.244H176.105ZM176.105 121.244C176.017 121.244 175.944 121.222 175.885 121.178C175.827 121.134 175.783 121.076 175.753 121.002C175.724 120.914 175.702 120.812 175.687 120.694C175.673 120.577 175.665 120.452 175.665 120.32C175.665 120.13 175.68 119.968 175.709 119.836C175.724 119.704 175.768 119.602 175.841 119.528C175.9 119.455 175.988 119.418 176.105 119.418V121.244ZM178.459 108.242V106.108H180.527V108.242H178.459Z" fill="black"/>
<path d="M30.1669 148.244V140.048H35.6149V141.428H31.8229V143.42H34.8949V144.776H31.8229V146.864H35.6149V148.244H30.1669ZM40.2466 148.376C39.5586 148.376 39.0186 148.272 38.6266 148.064C38.2426 147.848 37.9706 147.504 37.8106 147.032C37.6586 146.56 37.5826 145.94 37.5826 145.172C37.5826 144.412 37.6706 143.808 37.8466 143.36C38.0226 142.904 38.3066 142.58 38.6986 142.388C39.0986 142.188 39.6186 142.088 40.2586 142.088C40.4266 142.088 40.6226 142.1 40.8466 142.124C41.0706 142.148 41.2946 142.18 41.5186 142.22C41.7506 142.252 41.9466 142.284 42.1066 142.316L42.0466 143.6C41.8946 143.584 41.7226 143.572 41.5306 143.564C41.3386 143.548 41.1506 143.536 40.9666 143.528C40.7906 143.512 40.6466 143.504 40.5346 143.504C40.1906 143.504 39.9186 143.56 39.7186 143.672C39.5266 143.776 39.3906 143.952 39.3106 144.2C39.2386 144.44 39.2026 144.764 39.2026 145.172C39.2026 145.612 39.2386 145.964 39.3106 146.228C39.3826 146.492 39.5106 146.68 39.6946 146.792C39.8866 146.904 40.1666 146.96 40.5346 146.96C40.6466 146.96 40.7946 146.956 40.9786 146.948C41.1626 146.932 41.3506 146.916 41.5426 146.9C41.7426 146.884 41.9186 146.872 42.0706 146.864L42.1186 148.148C41.9586 148.18 41.7666 148.212 41.5426 148.244C41.3186 148.284 41.0906 148.316 40.8586 148.34C40.6346 148.364 40.4306 148.376 40.2466 148.376ZM46.8989 148.376C46.2189 148.376 45.6709 148.264 45.2549 148.04C44.8469 147.816 44.5509 147.472 44.3669 147.008C44.1829 146.536 44.0909 145.928 44.0909 145.184C44.0909 144.464 44.1869 143.88 44.3789 143.432C44.5709 142.976 44.8749 142.64 45.2909 142.424C45.7069 142.2 46.2429 142.088 46.8989 142.088C47.5629 142.088 48.0989 142.2 48.5069 142.424C48.9229 142.64 49.2269 142.976 49.4189 143.432C49.6189 143.88 49.7189 144.464 49.7189 145.184C49.7189 145.928 49.6269 146.536 49.4429 147.008C49.2589 147.472 48.9589 147.816 48.5429 148.04C48.1349 148.264 47.5869 148.376 46.8989 148.376ZM46.8989 147.056C47.2349 147.056 47.4869 146.996 47.6549 146.876C47.8229 146.748 47.9349 146.548 47.9909 146.276C48.0549 145.996 48.0869 145.632 48.0869 145.184C48.0869 144.744 48.0509 144.396 47.9789 144.14C47.9069 143.876 47.7869 143.688 47.6189 143.576C47.4509 143.464 47.2109 143.408 46.8989 143.408C46.5949 143.408 46.3549 143.464 46.1789 143.576C46.0109 143.688 45.8909 143.876 45.8189 144.14C45.7469 144.396 45.7109 144.744 45.7109 145.184C45.7109 145.632 45.7389 145.996 45.7949 146.276C45.8589 146.548 45.9749 146.748 46.1429 146.876C46.3109 146.996 46.5629 147.056 46.8989 147.056ZM52.0108 148.244V142.22H53.6068V142.604C53.7268 142.524 53.8788 142.448 54.0628 142.376C54.2468 142.296 54.4388 142.228 54.6388 142.172C54.8468 142.116 55.0468 142.088 55.2388 142.088C55.6068 142.088 55.9068 142.14 56.1388 142.244C56.3708 142.34 56.5628 142.484 56.7148 142.676C56.8588 142.588 57.0388 142.5 57.2548 142.412C57.4708 142.324 57.7068 142.248 57.9628 142.184C58.2188 142.12 58.4668 142.088 58.7068 142.088C59.1468 142.088 59.5068 142.148 59.7868 142.268C60.0748 142.38 60.2988 142.56 60.4588 142.808C60.6188 143.048 60.7308 143.36 60.7948 143.744C60.8588 144.12 60.8908 144.576 60.8908 145.112V148.244H59.2948V145.256C59.2948 144.84 59.2708 144.504 59.2228 144.248C59.1828 143.984 59.0948 143.792 58.9588 143.672C58.8308 143.552 58.6348 143.492 58.3708 143.492C58.2268 143.492 58.0748 143.508 57.9148 143.54C57.7548 143.564 57.6068 143.6 57.4708 143.648C57.3428 143.696 57.2388 143.74 57.1588 143.78C57.1988 143.948 57.2268 144.164 57.2428 144.428C57.2668 144.692 57.2788 144.968 57.2788 145.256V148.244H55.6828V145.28C55.6828 144.856 55.6588 144.512 55.6108 144.248C55.5708 143.984 55.4828 143.792 55.3468 143.672C55.2108 143.552 55.0148 143.492 54.7588 143.492C54.6148 143.492 54.4668 143.508 54.3148 143.54C54.1708 143.564 54.0348 143.6 53.9068 143.648C53.7868 143.696 53.6868 143.74 53.6068 143.78V148.244H52.0108ZM63.3592 148.244V142.22H64.9552V142.604C65.0752 142.524 65.2272 142.448 65.4112 142.376C65.5952 142.296 65.7872 142.228 65.9872 142.172C66.1952 142.116 66.3952 142.088 66.5872 142.088C66.9552 142.088 67.2552 142.14 67.4872 142.244C67.7192 142.34 67.9112 142.484 68.0632 142.676C68.2072 142.588 68.3872 142.5 68.6032 142.412C68.8192 142.324 69.0552 142.248 69.3112 142.184C69.5672 142.12 69.8152 142.088 70.0552 142.088C70.4952 142.088 70.8552 142.148 71.1352 142.268C71.4232 142.38 71.6472 142.56 71.8072 142.808C71.9672 143.048 72.0792 143.36 72.1432 143.744C72.2072 144.12 72.2392 144.576 72.2392 145.112V148.244H70.6432V145.256C70.6432 144.84 70.6192 144.504 70.5712 144.248C70.5312 143.984 70.4432 143.792 70.3072 143.672C70.1792 143.552 69.9832 143.492 69.7192 143.492C69.5752 143.492 69.4232 143.508 69.2632 143.54C69.1032 143.564 68.9552 143.6 68.8192 143.648C68.6912 143.696 68.5872 143.74 68.5072 143.78C68.5472 143.948 68.5752 144.164 68.5912 144.428C68.6152 144.692 68.6272 144.968 68.6272 145.256V148.244H67.0312V145.28C67.0312 144.856 67.0072 144.512 66.9592 144.248C66.9192 143.984 66.8312 143.792 66.6952 143.672C66.5592 143.552 66.3632 143.492 66.1072 143.492C65.9632 143.492 65.8152 143.508 65.6632 143.54C65.5192 143.564 65.3832 143.6 65.2552 143.648C65.1352 143.696 65.0352 143.74 64.9552 143.78V148.244H63.3592ZM77.1437 148.376C76.4797 148.376 75.9517 148.264 75.5597 148.04C75.1757 147.816 74.8997 147.476 74.7317 147.02C74.5637 146.564 74.4797 145.992 74.4797 145.304C74.4797 144.56 74.5837 143.952 74.7917 143.48C75.0077 143.008 75.3197 142.66 75.7277 142.436C76.1357 142.204 76.6397 142.088 77.2397 142.088C78.1277 142.088 78.7957 142.312 79.2437 142.76C79.6997 143.208 79.9277 143.916 79.9277 144.884L79.8557 145.772H76.0877C76.0957 146.22 76.1877 146.556 76.3637 146.78C76.5397 147.004 76.8437 147.116 77.2757 147.116C77.5237 147.116 77.7957 147.112 78.0917 147.104C78.3877 147.088 78.6797 147.072 78.9677 147.056C79.2637 147.04 79.5157 147.024 79.7237 147.008L79.7597 148.124C79.5597 148.156 79.3077 148.192 79.0037 148.232C78.6997 148.272 78.3837 148.304 78.0557 148.328C77.7357 148.36 77.4317 148.376 77.1437 148.376ZM76.0877 144.752H78.3317C78.3317 144.208 78.2437 143.828 78.0677 143.612C77.8997 143.396 77.6237 143.288 77.2397 143.288C76.9837 143.288 76.7717 143.336 76.6037 143.432C76.4357 143.528 76.3077 143.684 76.2197 143.9C76.1317 144.116 76.0877 144.4 76.0877 144.752ZM82.1889 148.244V142.22H83.7849V142.928C83.9209 142.824 84.0889 142.716 84.2889 142.604C84.4889 142.484 84.7049 142.376 84.9369 142.28C85.1769 142.176 85.4049 142.108 85.6209 142.076V143.624C85.4129 143.656 85.1929 143.712 84.9609 143.792C84.7289 143.864 84.5089 143.944 84.3009 144.032C84.1009 144.12 83.9289 144.2 83.7849 144.272V148.244H82.1889ZM90.0442 148.376C89.3562 148.376 88.8162 148.272 88.4242 148.064C88.0402 147.848 87.7682 147.504 87.6082 147.032C87.4562 146.56 87.3802 145.94 87.3802 145.172C87.3802 144.412 87.4682 143.808 87.6442 143.36C87.8202 142.904 88.1042 142.58 88.4962 142.388C88.8962 142.188 89.4162 142.088 90.0562 142.088C90.2242 142.088 90.4202 142.1 90.6442 142.124C90.8682 142.148 91.0922 142.18 91.3162 142.22C91.5482 142.252 91.7442 142.284 91.9042 142.316L91.8442 143.6C91.6922 143.584 91.5202 143.572 91.3282 143.564C91.1362 143.548 90.9482 143.536 90.7642 143.528C90.5882 143.512 90.4442 143.504 90.3322 143.504C89.9882 143.504 89.7162 143.56 89.5162 143.672C89.3242 143.776 89.1882 143.952 89.1082 144.2C89.0362 144.44 89.0002 144.764 89.0002 145.172C89.0002 145.612 89.0362 145.964 89.1082 146.228C89.1802 146.492 89.3082 146.68 89.4922 146.792C89.6842 146.904 89.9642 146.96 90.3322 146.96C90.4442 146.96 90.5922 146.956 90.7762 146.948C90.9602 146.932 91.1482 146.916 91.3402 146.9C91.5402 146.884 91.7162 146.872 91.8682 146.864L91.9162 148.148C91.7562 148.18 91.5642 148.212 91.3402 148.244C91.1162 148.284 90.8882 148.316 90.6562 148.34C90.4322 148.364 90.2282 148.376 90.0442 148.376ZM96.5288 148.376C95.8648 148.376 95.3368 148.264 94.9448 148.04C94.5608 147.816 94.2848 147.476 94.1168 147.02C93.9488 146.564 93.8648 145.992 93.8648 145.304C93.8648 144.56 93.9688 143.952 94.1768 143.48C94.3928 143.008 94.7048 142.66 95.1128 142.436C95.5208 142.204 96.0248 142.088 96.6248 142.088C97.5128 142.088 98.1808 142.312 98.6288 142.76C99.0848 143.208 99.3128 143.916 99.3128 144.884L99.2408 145.772H95.4728C95.4808 146.22 95.5728 146.556 95.7488 146.78C95.9248 147.004 96.2288 147.116 96.6608 147.116C96.9088 147.116 97.1808 147.112 97.4768 147.104C97.7728 147.088 98.0648 147.072 98.3528 147.056C98.6488 147.04 98.9008 147.024 99.1088 147.008L99.1448 148.124C98.9448 148.156 98.6928 148.192 98.3888 148.232C98.0848 148.272 97.7688 148.304 97.4408 148.328C97.1208 148.36 96.8168 148.376 96.5288 148.376ZM95.4728 144.752H97.7168C97.7168 144.208 97.6288 143.828 97.4528 143.612C97.2848 143.396 97.0088 143.288 96.6248 143.288C96.3688 143.288 96.1568 143.336 95.9888 143.432C95.8208 143.528 95.6928 143.684 95.6048 143.9C95.5168 144.116 95.4728 144.4 95.4728 144.752ZM105.387 148.244V142.22H106.983V142.604C107.103 142.524 107.255 142.448 107.439 142.376C107.623 142.296 107.815 142.228 108.015 142.172C108.223 142.116 108.423 142.088 108.615 142.088C108.983 142.088 109.283 142.14 109.515 142.244C109.747 142.34 109.939 142.484 110.091 142.676C110.235 142.588 110.415 142.5 110.631 142.412C110.847 142.324 111.083 142.248 111.339 142.184C111.595 142.12 111.843 142.088 112.083 142.088C112.523 142.088 112.883 142.148 113.163 142.268C113.451 142.38 113.675 142.56 113.835 142.808C113.995 143.048 114.107 143.36 114.171 143.744C114.235 144.12 114.267 144.576 114.267 145.112V148.244H112.671V145.256C112.671 144.84 112.647 144.504 112.599 144.248C112.559 143.984 112.471 143.792 112.335 143.672C112.207 143.552 112.011 143.492 111.747 143.492C111.603 143.492 111.451 143.508 111.291 143.54C111.131 143.564 110.983 143.6 110.847 143.648C110.719 143.696 110.615 143.74 110.535 143.78C110.575 143.948 110.603 144.164 110.619 144.428C110.643 144.692 110.655 144.968 110.655 145.256V148.244H109.059V145.28C109.059 144.856 109.035 144.512 108.987 144.248C108.947 143.984 108.859 143.792 108.723 143.672C108.587 143.552 108.391 143.492 108.135 143.492C107.991 143.492 107.843 143.508 107.691 143.54C107.547 143.564 107.411 143.6 107.283 143.648C107.163 143.696 107.063 143.74 106.983 143.78V148.244H105.387ZM118.308 148.376C117.684 148.376 117.212 148.22 116.892 147.908C116.58 147.588 116.424 147.108 116.424 146.468C116.424 146.02 116.504 145.672 116.664 145.424C116.824 145.168 117.06 144.984 117.372 144.872C117.692 144.752 118.08 144.68 118.536 144.656L120 144.524V144.164C120 143.876 119.928 143.676 119.784 143.564C119.64 143.444 119.428 143.384 119.148 143.384C118.924 143.384 118.664 143.392 118.368 143.408C118.08 143.424 117.792 143.444 117.504 143.468C117.224 143.492 116.98 143.516 116.772 143.54L116.724 142.412C116.932 142.364 117.18 142.316 117.468 142.268C117.764 142.212 118.072 142.168 118.392 142.136C118.712 142.104 119.008 142.088 119.28 142.088C119.792 142.088 120.22 142.152 120.564 142.28C120.908 142.408 121.168 142.62 121.344 142.916C121.52 143.204 121.608 143.596 121.608 144.092V146.84C121.624 146.952 121.684 147.04 121.788 147.104C121.892 147.16 122.012 147.2 122.148 147.224L122.112 148.328C121.984 148.328 121.856 148.328 121.728 148.328C121.608 148.336 121.492 148.336 121.38 148.328C121.268 148.328 121.168 148.32 121.08 148.304C120.896 148.28 120.736 148.232 120.6 148.16C120.472 148.088 120.368 148.012 120.288 147.932C120.16 147.988 119.988 148.052 119.772 148.124C119.556 148.196 119.32 148.256 119.064 148.304C118.816 148.352 118.564 148.376 118.308 148.376ZM118.692 147.188C118.844 147.188 119.004 147.172 119.172 147.14C119.34 147.108 119.496 147.072 119.64 147.032C119.792 146.984 119.912 146.94 120 146.9V145.52L118.776 145.628C118.512 145.652 118.32 145.732 118.2 145.868C118.088 145.996 118.032 146.18 118.032 146.42C118.032 146.66 118.084 146.848 118.188 146.984C118.3 147.12 118.468 147.188 118.692 147.188ZM124.217 148.244V142.22H125.813V142.604C125.941 142.524 126.097 142.448 126.281 142.376C126.465 142.296 126.657 142.228 126.857 142.172C127.065 142.116 127.265 142.088 127.457 142.088C127.873 142.088 128.217 142.144 128.489 142.256C128.769 142.36 128.989 142.532 129.149 142.772C129.309 143.012 129.425 143.328 129.497 143.72C129.569 144.104 129.605 144.572 129.605 145.124V148.244H127.997V145.208C127.997 144.792 127.973 144.46 127.925 144.212C127.877 143.956 127.785 143.772 127.649 143.66C127.513 143.548 127.313 143.492 127.049 143.492C126.905 143.492 126.753 143.508 126.593 143.54C126.441 143.564 126.293 143.6 126.149 143.648C126.013 143.696 125.901 143.744 125.813 143.792V148.244H124.217ZM133.622 148.376C132.998 148.376 132.526 148.22 132.206 147.908C131.894 147.588 131.738 147.108 131.738 146.468C131.738 146.02 131.818 145.672 131.978 145.424C132.138 145.168 132.374 144.984 132.686 144.872C133.006 144.752 133.394 144.68 133.85 144.656L135.314 144.524V144.164C135.314 143.876 135.242 143.676 135.098 143.564C134.954 143.444 134.742 143.384 134.462 143.384C134.238 143.384 133.978 143.392 133.682 143.408C133.394 143.424 133.106 143.444 132.818 143.468C132.538 143.492 132.294 143.516 132.086 143.54L132.038 142.412C132.246 142.364 132.494 142.316 132.782 142.268C133.078 142.212 133.386 142.168 133.706 142.136C134.026 142.104 134.322 142.088 134.594 142.088C135.106 142.088 135.534 142.152 135.878 142.28C136.222 142.408 136.482 142.62 136.658 142.916C136.834 143.204 136.922 143.596 136.922 144.092V146.84C136.938 146.952 136.998 147.04 137.102 147.104C137.206 147.16 137.326 147.2 137.462 147.224L137.426 148.328C137.298 148.328 137.17 148.328 137.042 148.328C136.922 148.336 136.806 148.336 136.694 148.328C136.582 148.328 136.482 148.32 136.394 148.304C136.21 148.28 136.05 148.232 135.914 148.16C135.786 148.088 135.682 148.012 135.602 147.932C135.474 147.988 135.302 148.052 135.086 148.124C134.87 148.196 134.634 148.256 134.378 148.304C134.13 148.352 133.878 148.376 133.622 148.376ZM134.006 147.188C134.158 147.188 134.318 147.172 134.486 147.14C134.654 147.108 134.81 147.072 134.954 147.032C135.106 146.984 135.226 146.94 135.314 146.9V145.52L134.09 145.628C133.826 145.652 133.634 145.732 133.514 145.868C133.402 145.996 133.346 146.18 133.346 146.42C133.346 146.66 133.398 146.848 133.502 146.984C133.614 147.12 133.782 147.188 134.006 147.188ZM142.125 150.992C141.485 150.992 140.949 150.944 140.517 150.848C140.093 150.752 139.773 150.576 139.557 150.32C139.341 150.072 139.233 149.712 139.233 149.24C139.233 149.032 139.261 148.844 139.317 148.676C139.381 148.516 139.477 148.364 139.604 148.22C139.741 148.076 139.909 147.928 140.109 147.776C139.997 147.696 139.905 147.58 139.833 147.428C139.769 147.268 139.737 147.096 139.737 146.912C139.737 146.848 139.765 146.764 139.821 146.66C139.877 146.548 139.945 146.432 140.025 146.312C140.105 146.192 140.181 146.084 140.253 145.988C140.093 145.916 139.941 145.812 139.797 145.676C139.653 145.532 139.533 145.34 139.437 145.1C139.349 144.86 139.305 144.552 139.305 144.176C139.305 143.664 139.401 143.256 139.593 142.952C139.793 142.648 140.081 142.428 140.457 142.292C140.833 142.156 141.289 142.088 141.825 142.088C142.033 142.088 142.257 142.104 142.497 142.136C142.737 142.168 142.929 142.2 143.073 142.232L145.029 142.196V143.276L144.117 143.264C144.189 143.36 144.253 143.484 144.309 143.636C144.373 143.78 144.405 143.96 144.405 144.176C144.405 144.728 144.309 145.156 144.117 145.46C143.933 145.764 143.653 145.976 143.277 146.096C142.901 146.208 142.425 146.264 141.849 146.264C141.785 146.264 141.697 146.26 141.585 146.252C141.473 146.236 141.381 146.224 141.309 146.216C141.277 146.296 141.245 146.388 141.213 146.492C141.181 146.588 141.165 146.656 141.165 146.696C141.165 146.784 141.181 146.852 141.213 146.9C141.253 146.948 141.321 146.988 141.417 147.02C141.521 147.044 141.669 147.06 141.861 147.068C142.061 147.076 142.325 147.08 142.653 147.08C143.221 147.08 143.673 147.132 144.009 147.236C144.353 147.34 144.597 147.524 144.741 147.788C144.885 148.052 144.957 148.424 144.957 148.904C144.957 149.616 144.705 150.14 144.201 150.476C143.705 150.82 143.013 150.992 142.125 150.992ZM142.041 149.804C142.537 149.804 142.893 149.744 143.109 149.624C143.333 149.512 143.445 149.324 143.445 149.06C143.445 148.852 143.405 148.7 143.325 148.604C143.253 148.508 143.129 148.444 142.953 148.412C142.777 148.388 142.537 148.376 142.233 148.376C142.153 148.376 142.057 148.372 141.945 148.364C141.833 148.364 141.717 148.36 141.597 148.352C141.485 148.352 141.381 148.348 141.285 148.34C141.197 148.332 141.133 148.328 141.093 148.328C140.981 148.408 140.889 148.484 140.817 148.556C140.753 148.628 140.705 148.7 140.673 148.772C140.649 148.852 140.637 148.948 140.637 149.06C140.637 149.244 140.681 149.388 140.769 149.492C140.857 149.604 141.001 149.684 141.201 149.732C141.409 149.78 141.689 149.804 142.041 149.804ZM141.837 145.136C142.205 145.136 142.465 145.064 142.617 144.92C142.777 144.768 142.857 144.52 142.857 144.176C142.857 143.832 142.777 143.584 142.617 143.432C142.465 143.28 142.205 143.204 141.837 143.204C141.485 143.204 141.229 143.28 141.069 143.432C140.917 143.584 140.841 143.832 140.841 144.176C140.841 144.52 140.917 144.768 141.069 144.92C141.229 145.064 141.485 145.136 141.837 145.136ZM149.413 148.376C148.749 148.376 148.221 148.264 147.829 148.04C147.445 147.816 147.169 147.476 147.001 147.02C146.833 146.564 146.749 145.992 146.749 145.304C146.749 144.56 146.853 143.952 147.061 143.48C147.277 143.008 147.589 142.66 147.997 142.436C148.405 142.204 148.909 142.088 149.509 142.088C150.397 142.088 151.065 142.312 151.513 142.76C151.969 143.208 152.197 143.916 152.197 144.884L152.125 145.772H148.357C148.365 146.22 148.457 146.556 148.633 146.78C148.809 147.004 149.113 147.116 149.545 147.116C149.793 147.116 150.065 147.112 150.361 147.104C150.657 147.088 150.949 147.072 151.237 147.056C151.533 147.04 151.785 147.024 151.993 147.008L152.029 148.124C151.829 148.156 151.577 148.192 151.273 148.232C150.969 148.272 150.653 148.304 150.325 148.328C150.005 148.36 149.701 148.376 149.413 148.376ZM148.357 144.752H150.601C150.601 144.208 150.513 143.828 150.337 143.612C150.169 143.396 149.893 143.288 149.509 143.288C149.253 143.288 149.041 143.336 148.873 143.432C148.705 143.528 148.577 143.684 148.489 143.9C148.401 144.116 148.357 144.4 148.357 144.752ZM154.458 148.244V142.22H156.054V142.604C156.174 142.524 156.326 142.448 156.51 142.376C156.694 142.296 156.886 142.228 157.086 142.172C157.294 142.116 157.494 142.088 157.686 142.088C158.054 142.088 158.354 142.14 158.586 142.244C158.818 142.34 159.01 142.484 159.162 142.676C159.306 142.588 159.486 142.5 159.702 142.412C159.918 142.324 160.154 142.248 160.41 142.184C160.666 142.12 160.914 142.088 161.154 142.088C161.594 142.088 161.954 142.148 162.234 142.268C162.522 142.38 162.746 142.56 162.906 142.808C163.066 143.048 163.178 143.36 163.242 143.744C163.306 144.12 163.338 144.576 163.338 145.112V148.244H161.742V145.256C161.742 144.84 161.718 144.504 161.67 144.248C161.63 143.984 161.542 143.792 161.406 143.672C161.278 143.552 161.082 143.492 160.818 143.492C160.674 143.492 160.522 143.508 160.362 143.54C160.202 143.564 160.054 143.6 159.918 143.648C159.79 143.696 159.686 143.74 159.606 143.78C159.646 143.948 159.674 144.164 159.69 144.428C159.714 144.692 159.726 144.968 159.726 145.256V148.244H158.13V145.28C158.13 144.856 158.106 144.512 158.058 144.248C158.018 143.984 157.93 143.792 157.794 143.672C157.658 143.552 157.462 143.492 157.206 143.492C157.062 143.492 156.914 143.508 156.762 143.54C156.618 143.564 156.482 143.6 156.354 143.648C156.234 143.696 156.134 143.74 156.054 143.78V148.244H154.458ZM168.243 148.376C167.579 148.376 167.051 148.264 166.659 148.04C166.275 147.816 165.999 147.476 165.831 147.02C165.663 146.564 165.579 145.992 165.579 145.304C165.579 144.56 165.683 143.952 165.891 143.48C166.107 143.008 166.419 142.66 166.827 142.436C167.235 142.204 167.739 142.088 168.339 142.088C169.227 142.088 169.895 142.312 170.343 142.76C170.799 143.208 171.027 143.916 171.027 144.884L170.955 145.772H167.187C167.195 146.22 167.287 146.556 167.463 146.78C167.639 147.004 167.943 147.116 168.375 147.116C168.623 147.116 168.895 147.112 169.191 147.104C169.487 147.088 169.779 147.072 170.067 147.056C170.363 147.04 170.615 147.024 170.823 147.008L170.859 148.124C170.659 148.156 170.407 148.192 170.103 148.232C169.799 148.272 169.483 148.304 169.155 148.328C168.835 148.36 168.531 148.376 168.243 148.376ZM167.187 144.752H169.431C169.431 144.208 169.343 143.828 169.167 143.612C168.999 143.396 168.723 143.288 168.339 143.288C168.083 143.288 167.871 143.336 167.703 143.432C167.535 143.528 167.407 143.684 167.319 143.9C167.231 144.116 167.187 144.4 167.187 144.752ZM173.288 148.244V142.22H174.884V142.604C175.012 142.524 175.168 142.448 175.352 142.376C175.536 142.296 175.728 142.228 175.928 142.172C176.136 142.116 176.336 142.088 176.528 142.088C176.944 142.088 177.288 142.144 177.56 142.256C177.84 142.36 178.06 142.532 178.22 142.772C178.38 143.012 178.496 143.328 178.568 143.72C178.64 144.104 178.676 144.572 178.676 145.124V148.244H177.068V145.208C177.068 144.792 177.044 144.46 176.996 144.212C176.948 143.956 176.856 143.772 176.72 143.66C176.584 143.548 176.384 143.492 176.12 143.492C175.976 143.492 175.824 143.508 175.664 143.54C175.512 143.564 175.364 143.6 175.22 143.648C175.084 143.696 174.972 143.744 174.884 143.792V148.244H173.288ZM183.21 148.388C182.77 148.388 182.414 148.324 182.142 148.196C181.87 148.068 181.674 147.848 181.554 147.536C181.442 147.216 181.386 146.772 181.386 146.204V143.552H180.678V142.22H181.386V140.624H182.982V142.22H184.518V143.552H182.982V145.784C182.982 146.096 182.994 146.34 183.018 146.516C183.05 146.692 183.114 146.816 183.21 146.888C183.306 146.96 183.454 146.996 183.654 146.996C183.71 146.996 183.794 146.992 183.906 146.984C184.018 146.976 184.13 146.968 184.242 146.96C184.354 146.952 184.446 146.944 184.518 146.936L184.566 148.22C184.446 148.244 184.298 148.268 184.122 148.292C183.954 148.316 183.786 148.336 183.618 148.352C183.458 148.376 183.322 148.388 183.21 148.388Z" fill="#455956"/>
</svg>
