<svg width="49" height="34" viewBox="0 0 49 34" fill="none" xmlns="http://www.w3.org/2000/svg">
<path d="M10.9238 6.12134C11.4597 6.11361 11.808 6.26208 12.1221 6.70044C16.6301 12.9932 21.166 19.2665 25.6484 25.5774C26.1093 26.2261 26.6028 26.1954 27.248 26.134V6.18872H36.0801C35.7241 6.34347 35.4458 6.4703 35.1631 6.58618C33.8964 7.1054 33.2005 8.07851 33.1104 9.41138C33.0091 10.909 32.9955 12.4142 32.9902 13.9163C32.9731 18.8338 32.9904 23.7517 32.9668 28.6692C32.9558 30.9711 33.3929 32.9613 36.0039 33.7073C34.0856 33.7073 32.1673 33.7073 30.249 33.7073C28.4218 33.7073 26.5939 33.6824 24.7676 33.7219C24.2208 33.7338 23.8934 33.5539 23.585 33.1233C19.1559 26.9383 14.7134 20.7624 10.2734 14.5852C10.1858 14.4633 10.0891 14.3474 9.88086 14.0803C9.88086 14.503 9.88085 14.7564 9.88086 15.009C9.88094 19.5503 9.8786 24.0918 9.88574 28.6331C9.88655 29.1415 9.94246 29.6502 9.97559 30.1584C10.0858 31.8482 10.9453 32.9457 12.5684 33.4436C12.6879 33.4803 12.7967 33.5538 13.1084 33.7073C12.6654 33.7073 12.4183 33.7072 12.1719 33.7073C8.19482 33.7086 4.21729 33.7096 0.240234 33.7102C0.160162 33.7102 0.0800721 33.7014 0 33.6965C0.0356109 33.6434 0.0710974 33.5899 0.162109 33.5129C2.19225 32.9056 2.94049 31.4693 2.94141 29.5344C2.94428 23.112 2.94515 16.6892 2.93359 10.2668C2.92987 8.23459 2.09627 6.76962 0.0205078 6.13501C1.4515 6.13501 2.88249 6.13501 4.31348 6.13501C6.51688 6.135 8.72089 6.1531 10.9238 6.12134ZM16.583 0.013916C23.3026 0.0139652 30.0236 -0.0344569 36.7422 0.0490723C38.3519 0.0691342 40.0019 0.369815 41.5527 0.81958C44.1982 1.58687 45.7169 3.52447 46.3252 6.17603C46.7874 8.19136 46.7866 10.2154 46.3584 12.2434C45.7142 15.2937 43.7793 17.0701 40.8545 17.8879C40.5975 17.9598 40.3371 18.0218 39.9404 18.1243C42.7979 21.382 44.5988 25.5034 48.8271 27.553C48.5549 27.5665 48.3666 27.5841 48.1787 27.5842C45.2221 27.5859 42.2649 27.571 39.3086 27.5999C38.8148 27.6046 38.5393 27.439 38.2705 27.052C37.0946 25.3581 35.8869 23.6858 34.7002 21.9993C34.5677 21.8109 34.4109 21.5805 34.4092 21.3684C34.3895 18.6885 34.3955 16.0077 34.3955 13.2073C35.1056 13.2073 35.7536 13.2787 36.3809 13.1956C38.8957 12.8622 40.1434 10.9572 39.6572 8.26392C39.3101 6.34181 38.0975 5.23348 36.0186 5.19458C32.555 5.12979 29.089 5.177 25.5693 5.177V19.0266C24.9899 18.1968 24.5448 17.561 24.1016 16.9241C22.419 14.5061 20.7218 12.0981 19.0713 9.65845C18.8085 9.27003 18.6551 8.74347 18.6279 8.27075C18.528 6.53062 18.5438 4.78337 18.4238 3.04517C18.3872 2.51486 18.0543 2.00469 17.8184 1.4397C17.0881 0.931135 16.3956 0.468626 15.7158 0.013916C15.9659 0.013916 16.2747 0.0139136 16.583 0.013916Z" fill="rgba(34, 56, 98, 1)"/>
</svg>
