<svg width="28" height="28" viewBox="0 0 28 28" fill="none" xmlns="http://www.w3.org/2000/svg">
<path fill-rule="evenodd" clip-rule="evenodd" d="M5.95151 0.428192C11.108 -0.142731 16.3117 -0.142731 21.4682 0.428192C24.3232 0.748192 26.6265 2.99653 26.9615 5.86153C27.5726 11.0915 27.5726 16.3749 26.9615 21.6049C26.6265 24.4699 24.3232 26.7182 21.4682 27.0382C16.3117 27.6091 11.108 27.6091 5.95151 27.0382C3.09651 26.7182 0.793181 24.4699 0.458181 21.6049C-0.152727 16.3754 -0.152727 11.0926 0.458181 5.86319C0.627628 4.47131 1.26215 3.17743 2.2589 2.19127C3.25566 1.2051 4.55623 0.584432 5.94985 0.429859M13.7098 5.41153C14.0414 5.41153 14.3593 5.54322 14.5937 5.77764C14.8282 6.01206 14.9598 6.33 14.9598 6.66153V12.4832H20.7815C21.113 12.4832 21.431 12.6149 21.6654 12.8493C21.8998 13.0837 22.0315 13.4017 22.0315 13.7332C22.0315 14.0647 21.8998 14.3827 21.6654 14.6171C21.431 14.8515 21.113 14.9832 20.7815 14.9832H14.9598V20.8049C14.9598 21.1364 14.8282 21.4543 14.5937 21.6887C14.3593 21.9232 14.0414 22.0549 13.7098 22.0549C13.3783 22.0549 13.0604 21.9232 12.826 21.6887C12.5915 21.4543 12.4598 21.1364 12.4598 20.8049V14.9832H6.63818C6.30666 14.9832 5.98872 14.8515 5.7543 14.6171C5.51988 14.3827 5.38818 14.0647 5.38818 13.7332C5.38818 13.4017 5.51988 13.0837 5.7543 12.8493C5.98872 12.6149 6.30666 12.4832 6.63818 12.4832H12.4598V6.66153C12.4598 6.33 12.5915 6.01206 12.826 5.77764C13.0604 5.54322 13.3783 5.41153 13.7098 5.41153Z" fill="#223862"/>
</svg>
