<svg width="80" height="80" viewBox="0 0 80 80" fill="none" xmlns="http://www.w3.org/2000/svg">
<rect width="80" height="80" rx="40" fill="#C74848" fill-opacity="0.1"/>
<path fill-rule="evenodd" clip-rule="evenodd" d="M56 40C56 44.2435 54.3143 48.3131 51.3137 51.3137C48.3131 54.3143 44.2435 56 40 56C35.7565 56 31.6869 54.3143 28.6863 51.3137C25.6857 48.3131 24 44.2435 24 40C24 35.7565 25.6857 31.6869 28.6863 28.6863C31.6869 25.6857 35.7565 24 40 24C44.2435 24 48.3131 25.6857 51.3137 28.6863C54.3143 31.6869 56 35.7565 56 40ZM42 48C42 48.5304 41.7893 49.0391 41.4142 49.4142C41.0391 49.7893 40.5304 50 40 50C39.4696 50 38.9609 49.7893 38.5858 49.4142C38.2107 49.0391 38 48.5304 38 48C38 47.4696 38.2107 46.9609 38.5858 46.5858C38.9609 46.2107 39.4696 46 40 46C40.5304 46 41.0391 46.2107 41.4142 46.5858C41.7893 46.9609 42 47.4696 42 48ZM40 30C39.4696 30 38.9609 30.2107 38.5858 30.5858C38.2107 30.9609 38 31.4696 38 32V40C38 40.5304 38.2107 41.0391 38.5858 41.4142C38.9609 41.7893 39.4696 42 40 42C40.5304 42 41.0391 41.7893 41.4142 41.4142C41.7893 41.0391 42 40.5304 42 40V32C42 31.4696 41.7893 30.9609 41.4142 30.5858C41.0391 30.2107 40.5304 30 40 30Z" fill="#C74848"/>
</svg>
