<svg width="14" height="17" viewBox="0 0 14 17" fill="none" xmlns="http://www.w3.org/2000/svg">
<path d="M13.8084 13.308C13.7184 14.0358 13.6789 14.3512 13.3428 15.0606L8.18248 16.1261C8.30112 15.3594 8.45933 14.7681 8.71635 14.4134L13.8084 13.308ZM6.62061 8.28999L8.16273 7.95509V3.08211C8.73729 2.43714 9.09048 2.14759 9.78401 1.7815V7.60309L13.8084 6.72922C13.7184 7.45697 13.6789 7.77228 13.3428 8.48173L9.78401 9.23416V10.8707L13.8084 10.0188C13.7184 10.7467 13.6789 11.062 13.3428 11.7713L9.78401 12.5062V12.5216L8.16273 12.8566V9.57688L6.62061 9.90292V11.9698L6.59499 11.9751C6.24035 12.597 5.73907 13.3439 5.25639 13.9405L0.191406 14.9048C0.236819 14.2531 0.331712 13.8861 0.62641 13.2296L4.99933 12.2818V10.2456L0.946308 11.1028C0.991721 10.451 1.08655 10.0841 1.38123 9.42769L4.99933 8.64199V2.17561C5.57388 1.53064 5.92707 1.24109 6.62061 0.875V8.28999Z" fill="black"/>
</svg>
