<svg width="28" height="23" viewBox="0 0 28 23" fill="none" xmlns="http://www.w3.org/2000/svg">
<path d="M8.8102 0.4102C9.07269 0.147631 9.42873 7.92924e-05 9.8 0H18.2C18.5713 7.92924e-05 18.9273 0.147631 19.1898 0.4102L21.5796 2.8H25.2C25.9426 2.8 26.6548 3.095 27.1799 3.6201C27.705 4.1452 28 4.85739 28 5.6V19.6C28 20.3426 27.705 21.0548 27.1799 21.5799C26.6548 22.105 25.9426 22.4 25.2 22.4H2.8C2.05739 22.4 1.3452 22.105 0.820101 21.5799C0.294999 21.0548 0 20.3426 0 19.6V5.6C0 4.85739 0.294999 4.1452 0.820101 3.6201C1.3452 3.095 2.05739 2.8 2.8 2.8H6.4204L8.8102 0.4102ZM10.3796 2.8L7.9898 5.1898C7.72731 5.45237 7.37127 5.59992 7 5.6H2.8V19.6H25.2V5.6H21C20.6287 5.59992 20.2727 5.45237 20.0102 5.1898L17.6204 2.8H10.3796ZM14 9.1C13.2574 9.1 12.5452 9.395 12.0201 9.9201C11.495 10.4452 11.2 11.1574 11.2 11.9C11.2 12.6426 11.495 13.3548 12.0201 13.8799C12.5452 14.405 13.2574 14.7 14 14.7C14.7426 14.7 15.4548 14.405 15.9799 13.8799C16.505 13.3548 16.8 12.6426 16.8 11.9C16.8 11.1574 16.505 10.4452 15.9799 9.9201C15.4548 9.395 14.7426 9.1 14 9.1ZM8.4 11.9C8.4 10.4148 8.99 8.99041 10.0402 7.9402C11.0904 6.89 12.5148 6.3 14 6.3C15.4852 6.3 16.9096 6.89 17.9598 7.9402C19.01 8.99041 19.6 10.4148 19.6 11.9C19.6 13.3852 19.01 14.8096 17.9598 15.8598C16.9096 16.91 15.4852 17.5 14 17.5C12.5148 17.5 11.0904 16.91 10.0402 15.8598C8.99 14.8096 8.4 13.3852 8.4 11.9Z" fill="rgba(34, 56, 98, 1)"/>
</svg>
