<svg width="40" height="40" viewBox="0 0 40 40" fill="none" xmlns="http://www.w3.org/2000/svg">
<path d="M30.0345 32.5009H13.5012C12.9101 32.5013 12.338 32.2923 11.8865 31.9109C11.4349 31.5295 11.1331 31.0004 11.0345 30.4176L6.70121 4.58426C6.60099 3.98997 6.28945 3.45188 5.82395 3.06908C5.35846 2.68627 4.77034 2.4845 4.16788 2.50093H2.50121" stroke="#455956" stroke-width="2" stroke-linecap="round" stroke-linejoin="round"/>
<path d="M27.0112 37.5176C27.177 37.5176 27.336 37.4517 27.4532 37.3345C27.5704 37.2173 27.6362 37.0583 27.6362 36.8926C27.6362 36.7268 27.5704 36.5678 27.4532 36.4506C27.336 36.3334 27.177 36.2676 27.0112 36.2676M27.0112 37.5176C26.8455 37.5176 26.6865 37.4517 26.5693 37.3345C26.4521 37.2173 26.3862 37.0583 26.3862 36.8926C26.3862 36.7268 26.4521 36.5678 26.5693 36.4506C26.6865 36.3334 26.8455 36.2676 27.0112 36.2676M14.3929 37.5176C14.5587 37.5176 14.7176 37.4517 14.8348 37.3345C14.952 37.2173 15.0179 37.0583 15.0179 36.8926C15.0179 36.7268 14.952 36.5678 14.8348 36.4506C14.7176 36.3334 14.5587 36.2676 14.3929 36.2676M14.3929 37.5176C14.2271 37.5176 14.0682 37.4517 13.951 37.3345C13.8337 37.2173 13.7679 37.0583 13.7679 36.8926C13.7679 36.7268 13.8337 36.5678 13.951 36.4506C14.0682 36.3334 14.2271 36.2676 14.3929 36.2676" stroke="#455956" stroke-width="2"/>
<path d="M10.0346 25.0018H30.2346C31.3404 24.9908 32.4114 24.6135 33.2799 23.9289C34.1485 23.2443 34.7655 22.2911 35.0346 21.2185L37.5012 11.5518C37.5432 11.3678 37.544 11.1768 37.5037 10.9924C37.4633 10.808 37.3828 10.6348 37.2679 10.4851C37.1515 10.3352 37.0024 10.2137 36.832 10.13C36.6616 10.0462 36.4744 10.0024 36.2846 10.0018H7.56792M10.0346 10.0018L16.2846 3.75179C16.8744 3.16758 17.6711 2.83984 18.5012 2.83984C19.3314 2.83984 20.1281 3.16758 20.7179 3.75179L26.9679 10.0018" stroke="#455956" stroke-width="2" stroke-linecap="round" stroke-linejoin="round"/>
<path d="M22.5179 5.56854L29.8512 3.41854C30.2441 3.3013 30.6563 3.26313 31.0639 3.30627C31.4716 3.3494 31.8667 3.47297 32.2263 3.66983C32.5859 3.86669 32.9029 4.13292 33.159 4.45311C33.415 4.7733 33.605 5.1411 33.7179 5.53521L35.0345 10.0019" stroke="#455956" stroke-width="2" stroke-linecap="round" stroke-linejoin="round"/>
</svg>
