<svg width="24" height="24" viewBox="0 0 24 24" fill="none" xmlns="http://www.w3.org/2000/svg">
<path d="M11 21.7292C11.304 21.9047 11.6489 21.9971 12 21.9971C12.3511 21.9971 12.696 21.9047 13 21.7292L20 17.7292C20.3037 17.5538 20.556 17.3017 20.7315 16.998C20.9071 16.6944 20.9996 16.3499 21 15.9992V7.99917C20.9996 7.64844 20.9071 7.30398 20.7315 7.00033C20.556 6.69668 20.3037 6.44453 20 6.26917L13 2.26917C12.696 2.09363 12.3511 2.00122 12 2.00122C11.6489 2.00122 11.304 2.09363 11 2.26917L4 6.26917C3.69626 6.44453 3.44398 6.69668 3.26846 7.00033C3.09294 7.30398 3.00036 7.64844 3 7.99917V15.9992C3.00036 16.3499 3.09294 16.6944 3.26846 16.998C3.44398 17.3017 3.69626 17.5538 4 17.7292L11 21.7292Z" stroke="#56596D" stroke-width="2" stroke-linecap="round" stroke-linejoin="round"/>
<path d="M12 21.9995V11.9995" stroke="#56596D" stroke-width="2" stroke-linecap="round" stroke-linejoin="round"/>
<path d="M3.29004 6.99927L12 11.9993L20.71 6.99927" stroke="#56596D" stroke-width="2" stroke-linecap="round" stroke-linejoin="round"/>
<path d="M7.5 4.27002L16.5 9.42002" stroke="#56596D" stroke-width="2" stroke-linecap="round" stroke-linejoin="round"/>
</svg>
