<svg width="80" height="80" viewBox="0 0 80 80" fill="none" xmlns="http://www.w3.org/2000/svg">
<rect width="80" height="80" rx="40" fill="rgba(34, 56, 98, 1)" fill-opacity="0.1"/>
<path d="M40 24C48.8368 24 56 31.1632 56 40C56 48.8368 48.8368 56 40 56C31.1632 56 24 48.8368 24 40C24 31.1632 31.1632 24 40 24ZM40 46.4C39.5757 46.4 39.1687 46.5686 38.8686 46.8686C38.5686 47.1687 38.4 47.5757 38.4 48C38.4 48.4243 38.5686 48.8313 38.8686 49.1314C39.1687 49.4314 39.5757 49.6 40 49.6C40.4243 49.6 40.8313 49.4314 41.1314 49.1314C41.4314 48.8313 41.6 48.4243 41.6 48C41.6 47.5757 41.4314 47.1687 41.1314 46.8686C40.8313 46.5686 40.4243 46.4 40 46.4ZM40 31.2C38.4617 31.2 36.9865 31.8111 35.8988 32.8988C34.8111 33.9865 34.2 35.4617 34.2 37C34.2 37.4243 34.3686 37.8313 34.6686 38.1314C34.9687 38.4314 35.3757 38.6 35.8 38.6C36.2243 38.6 36.6313 38.4314 36.9314 38.1314C37.2314 37.8313 37.4 37.4243 37.4 37C37.4005 36.5281 37.5295 36.0652 37.7731 35.6609C38.0167 35.2567 38.3657 34.9264 38.7827 34.7055C39.1998 34.4845 39.6691 34.3812 40.1403 34.4067C40.6116 34.4322 41.067 34.5854 41.4578 34.85C41.8486 35.1146 42.1599 35.4806 42.3586 35.9088C42.5572 36.3369 42.6355 36.811 42.5852 37.2802C42.5348 37.7495 42.3577 38.1962 42.0728 38.5724C41.7879 38.9487 41.406 39.2403 40.968 39.416C39.8864 39.848 38.4 40.9552 38.4 42.8V43.2C38.4 43.6243 38.5686 44.0313 38.8686 44.3314C39.1687 44.6314 39.5757 44.8 40 44.8C40.4243 44.8 40.8313 44.6314 41.1314 44.3314C41.4314 44.0313 41.6 43.6243 41.6 43.2C41.6 42.8096 41.68 42.6144 42.0176 42.448L42.1568 42.384C43.4061 41.8814 44.4417 40.9599 45.086 39.7775C45.7303 38.595 45.9432 37.2253 45.6882 35.903C45.4332 34.5808 44.7262 33.3884 43.6884 32.5304C42.6506 31.6723 41.3466 31.202 40 31.2Z" fill="rgba(34, 56, 98, 1)"/>
</svg>
