<svg width="21" height="18" viewBox="0 0 21 18" fill="none" xmlns="http://www.w3.org/2000/svg">
<path d="M13.7207 4.83129C14.2173 4.83003 14.7014 4.67615 15.1075 4.39052C15.5137 4.10488 15.8222 3.70129 15.9913 3.23443H19.467C19.8784 3.23443 20.2402 2.87271 20.2402 2.42057C20.2402 1.96886 19.8789 1.617 19.467 1.617H16.0016C15.66 0.682714 14.766 0 13.7216 0C12.6772 0 11.7827 0.683143 11.451 1.617H0.813438C0.361295 1.617 9.21929e-06 1.96843 9.21929e-06 2.42057C-0.000501198 2.52756 0.0201872 2.63358 0.0608797 2.73252C0.101572 2.83147 0.161463 2.92137 0.237093 2.99704C0.312723 3.07271 0.402594 3.13265 0.501516 3.17339C0.600439 3.21414 0.706453 3.23488 0.813438 3.23443H11.4506C11.6196 3.70122 11.9281 4.10476 12.3342 4.39039C12.7402 4.67602 13.2243 4.82994 13.7207 4.83129ZM13.7207 3.59614C13.068 3.59614 12.5456 3.07329 12.5456 2.41071C12.5441 2.25598 12.5735 2.1025 12.632 1.95925C12.6905 1.816 12.777 1.68587 12.8865 1.57645C12.9959 1.46703 13.126 1.38052 13.2693 1.32199C13.4125 1.26346 13.566 1.23408 13.7207 1.23557C14.3837 1.23557 14.8959 1.74771 14.8959 2.41071C14.8959 3.07371 14.3837 3.59614 13.7207 3.59614ZM0.773581 7.74471C0.361295 7.74471 9.21929e-06 8.106 9.21929e-06 8.55814C9.21929e-06 9.01029 0.361295 9.36171 0.773152 9.36171H4.35944C4.69072 10.3059 5.58472 10.9787 6.62915 10.9787C7.13001 10.9792 7.6186 10.8237 8.02715 10.534C8.43569 10.2442 8.74395 9.83455 8.90915 9.36171H19.4263C19.878 9.36171 20.2397 9.01029 20.2397 8.55814C20.2402 8.45116 20.2195 8.34513 20.1789 8.24619C20.1382 8.14725 20.0783 8.05734 20.0026 7.98167C19.927 7.906 19.8371 7.84607 19.7382 7.80532C19.6393 7.76458 19.5333 7.74383 19.4263 7.74429H8.90915C8.56801 6.82029 7.67401 6.14743 6.62915 6.14743C5.59458 6.14743 4.70058 6.82029 4.35944 7.74429L0.773581 7.74471ZM6.62915 9.73328C6.47464 9.73397 6.32152 9.70403 6.17864 9.64522C6.03576 9.5864 5.90594 9.49987 5.79668 9.39061C5.68743 9.28135 5.60089 9.15154 5.54208 9.00866C5.48326 8.86577 5.45333 8.71265 5.45401 8.55814C5.45252 8.40341 5.4819 8.24993 5.54043 8.10668C5.59896 7.96343 5.68546 7.83329 5.79488 7.72387C5.9043 7.61445 6.03444 7.52795 6.17769 7.46942C6.32094 7.41089 6.47442 7.38151 6.62915 7.383C7.30201 7.383 7.80472 7.89514 7.80472 8.55814C7.80472 9.21086 7.30244 9.73328 6.62915 9.73328ZM13.7207 17.106C14.7656 17.106 15.6596 16.4331 15.9909 15.4989H19.4666C19.878 15.4989 20.2397 15.1474 20.2397 14.6953C20.2397 14.2431 19.8784 13.8819 19.4666 13.8819H15.9909C15.8235 13.4139 15.5155 13.0093 15.109 12.7233C14.7026 12.4373 14.2177 12.2841 13.7207 12.2846C13.2238 12.2841 12.7388 12.4373 12.3324 12.7233C11.926 13.0093 11.618 13.4139 11.4506 13.8819H0.813438C0.70649 13.8814 0.600511 13.9021 0.501616 13.9429C0.402722 13.9836 0.31287 14.0435 0.237245 14.1191C0.161621 14.1947 0.101722 14.2846 0.0610038 14.3835C0.0202858 14.4824 -0.000444437 14.5883 9.21929e-06 14.6953C9.21929e-06 15.1474 0.361295 15.4989 0.813438 15.4989H11.4506C11.7823 16.4331 12.6763 17.106 13.7207 17.106ZM13.7207 15.8704C13.5662 15.8711 13.4131 15.8412 13.2702 15.7824C13.1273 15.7235 12.9975 15.637 12.8883 15.5278C12.779 15.4185 12.6925 15.2887 12.6336 15.1458C12.5748 15.0029 12.5449 14.8498 12.5456 14.6953C12.5456 14.0224 13.068 13.5201 13.7207 13.5201C14.3837 13.5201 14.8959 14.0224 14.8959 14.6953C14.8974 14.85 14.868 15.0035 14.8094 15.1467C14.7509 15.29 14.6644 15.4201 14.555 15.5296C14.4456 15.639 14.3154 15.7255 14.1722 15.784C14.0289 15.8425 13.8755 15.8719 13.7207 15.8704Z" fill="#455956"/>
</svg>
