<svg width="27" height="24" viewBox="0 0 27 24" fill="none" xmlns="http://www.w3.org/2000/svg">
<path d="M4 0H22.6667C23.7275 0 24.7449 0.421427 25.4951 1.17157C26.2452 1.92172 26.6667 2.93913 26.6667 4V16C26.6667 17.0609 26.2452 18.0783 25.4951 18.8284C24.7449 19.5786 23.7275 20 22.6667 20H4C2.93913 20 1.92172 19.5786 1.17157 18.8284C0.421427 18.0783 0 17.0609 0 16L0 4C0 2.93913 0.421427 1.92172 1.17157 1.17157C1.92172 0.421427 2.93913 0 4 0ZM9.33333 21.3333H17.3333C17.687 21.3333 18.0261 21.4738 18.2761 21.7239C18.5262 21.9739 18.6667 22.313 18.6667 22.6667C18.6667 23.0203 18.5262 23.3594 18.2761 23.6095C18.0261 23.8595 17.687 24 17.3333 24H9.33333C8.97971 24 8.64057 23.8595 8.39052 23.6095C8.14048 23.3594 8 23.0203 8 22.6667C8 22.313 8.14048 21.9739 8.39052 21.7239C8.64057 21.4738 8.97971 21.3333 9.33333 21.3333Z" fill="#455956"/>
</svg>
