<svg width="14" height="16" viewBox="0 0 14 16" fill="none" xmlns="http://www.w3.org/2000/svg">
<path d="M3.33333 9.2625C3.16111 9.2625 3.01111 9.19861 2.88333 9.07083C2.75556 8.94306 2.69167 8.79305 2.69167 8.62083C2.69167 8.44861 2.75556 8.29889 2.88333 8.17167C3.01111 8.04444 3.16111 7.98056 3.33333 7.98C3.50556 7.97944 3.65556 8.04333 3.78333 8.17167C3.91111 8.3 3.975 8.45 3.975 8.62167C3.975 8.79333 3.91111 8.94306 3.78333 9.07083C3.65556 9.19861 3.50556 9.2625 3.33333 9.2625ZM6.66667 9.2625C6.49444 9.2625 6.34444 9.19861 6.21667 9.07083C6.08889 8.94306 6.025 8.79305 6.025 8.62083C6.025 8.44861 6.08889 8.29889 6.21667 8.17167C6.34444 8.04444 6.49444 7.98056 6.66667 7.98C6.83889 7.97944 6.98889 8.04333 7.11667 8.17167C7.24444 8.3 7.30833 8.45 7.30833 8.62167C7.30833 8.79333 7.24444 8.94306 7.11667 9.07083C6.98889 9.19861 6.83889 9.2625 6.66667 9.2625ZM10 9.2625C9.82778 9.2625 9.67778 9.19861 9.55 9.07083C9.42222 8.94306 9.35833 8.79305 9.35833 8.62083C9.35833 8.44861 9.42222 8.29889 9.55 8.17167C9.67778 8.04444 9.82778 7.98056 10 7.98C10.1722 7.97944 10.3222 8.04333 10.45 8.17167C10.5778 8.3 10.6417 8.45 10.6417 8.62167C10.6417 8.79333 10.5778 8.94306 10.45 9.07083C10.3222 9.19861 10.1722 9.2625 10 9.2625ZM1.34667 15.1917C0.962778 15.1917 0.6425 15.0633 0.385833 14.8067C0.129167 14.55 0.000555556 14.2297 0 13.8458V3.20417C0 2.82083 0.128611 2.50083 0.385833 2.24417C0.643055 1.9875 0.963333 1.85889 1.34667 1.85833H2.82083V0H3.71833V1.85833H9.68V0H10.5133V1.85833H11.9875C12.3708 1.85833 12.6911 1.98694 12.9483 2.24417C13.2056 2.50139 13.3339 2.82167 13.3333 3.205V13.8458C13.3333 14.2292 13.205 14.5494 12.9483 14.8067C12.6917 15.0639 12.3711 15.1922 11.9867 15.1917H1.34667ZM1.34667 14.3583H11.9875C12.1153 14.3583 12.2328 14.305 12.34 14.1983C12.4472 14.0917 12.5006 13.9739 12.5 13.845V6.53833H0.833333V13.8458C0.833333 13.9736 0.886667 14.0911 0.993333 14.1983C1.1 14.3056 1.2175 14.3589 1.34583 14.3583" fill="#56596D"/>
</svg>
