<svg width="49" height="50" viewBox="0 0 49 50" fill="none" xmlns="http://www.w3.org/2000/svg">
<path d="M7.5 35.2586L15.2973 1.86797C15.4128 1.37331 15.8808 1.04384 16.3855 1.10193L46.8921 4.61354C47.4834 4.68162 47.8848 5.24811 47.7528 5.8286L39.5742 41.8144C38.6762 45.7657 34.9656 48.4216 30.9357 47.9974L8.31415 45.6162C3.78277 45.1392 0.564238 40.9795 1.24014 36.4735L1.35525 35.706C1.43576 35.1693 1.9297 34.7948 2.46825 34.8621L28.4192 38.1066C29.0006 38.1793 29.4024 38.7328 29.3323 39.3145C29.0347 41.7823 28.8671 47.6581 34 47.7417" stroke="#1D4887" stroke-width="2" stroke-linecap="round"/>
<line x1="1" y1="-1" x2="20.8584" y2="-1" transform="matrix(0.992353 0.123435 -0.0943211 0.995542 19.3086 9.15625)" stroke="#1D4887" stroke-width="2" stroke-linecap="round"/>
<line x1="1" y1="-1" x2="20.8584" y2="-1" transform="matrix(0.992353 0.123435 -0.0943211 0.995542 17.7002 15.7417)" stroke="#1D4887" stroke-width="2" stroke-linecap="round"/>
<line x1="1" y1="-1" x2="20.8584" y2="-1" transform="matrix(0.992353 0.123435 -0.0943211 0.995542 16 22.7417)" stroke="#1D4887" stroke-width="2" stroke-linecap="round"/>
<line x1="1" y1="-1" x2="20.8584" y2="-1" transform="matrix(0.992353 0.123435 -0.0943211 0.995542 14 29.7417)" stroke="#1D4887" stroke-width="2" stroke-linecap="round"/>
</svg>