<svg width="40" height="40" viewBox="0 0 40 40" fill="none" xmlns="http://www.w3.org/2000/svg">
<g filter="url(#filter0_d_676_5931)">
<rect x="4" y="3" width="32" height="32" rx="4" fill="#FAFCFC"/>
<rect x="4.5" y="3.5" width="31" height="31" rx="3.5" stroke="#D8EBE7"/>
<path d="M12.9993 14.75C12.8511 14.7501 12.7062 14.7942 12.583 14.8766C12.4598 14.959 12.3638 15.0761 12.3071 15.2131C12.2503 15.35 12.2355 15.5007 12.2644 15.6461C12.2933 15.7915 12.3646 15.9251 12.4693 16.03L19.4693 23.03C19.61 23.1705 19.8006 23.2493 19.9993 23.2493C20.1981 23.2493 20.3887 23.1705 20.5293 23.03L27.5293 16.03C27.6341 15.9251 27.7054 15.7915 27.7343 15.6461C27.7632 15.5007 27.7483 15.35 27.6916 15.2131C27.6349 15.0761 27.5389 14.959 27.4157 14.8766C27.2925 14.7942 27.1476 14.7501 26.9993 14.75H12.9993Z" fill="#455956"/>
</g>
<defs>
<filter id="filter0_d_676_5931" x="0" y="0" width="40" height="40" filterUnits="userSpaceOnUse" color-interpolation-filters="sRGB">
<feFlood flood-opacity="0" result="backgroundImageFix"/>
<feColorMatrix in="SourceAlpha" type="matrix" values="0 0 0 0 0 0 0 0 0 0 0 0 0 0 0 0 0 0 127 0" result="hardAlpha"/>
<feOffset dy="1"/>
<feGaussianBlur stdDeviation="2"/>
<feComposite in2="hardAlpha" operator="out"/>
<feColorMatrix type="matrix" values="0 0 0 0 0 0 0 0 0 0 0 0 0 0 0 0 0 0 0.2 0"/>
<feBlend mode="normal" in2="backgroundImageFix" result="effect1_dropShadow_676_5931"/>
<feBlend mode="normal" in="SourceGraphic" in2="effect1_dropShadow_676_5931" result="shape"/>
</filter>
</defs>
</svg>
