<svg width="16" height="6" viewBox="0 0 16 6" fill="none" xmlns="http://www.w3.org/2000/svg">
<path d="M1 6C0.71667 6 0.479337 5.904 0.288004 5.712C0.0966702 5.52 0.000670115 5.28267 3.44827e-06 5C-0.000663218 4.71733 0.0953369 4.48 0.288004 4.288C0.48067 4.096 0.718003 4 1 4H15C15.2833 4 15.521 4.096 15.713 4.288C15.905 4.48 16.0007 4.71733 16 5C15.9993 5.28267 15.9033 5.52033 15.712 5.713C15.5207 5.90567 15.2833 6.00133 15 6H1ZM1 2C0.71667 2 0.479337 1.904 0.288004 1.712C0.0966702 1.52 0.000670115 1.28267 3.44827e-06 1C-0.000663218 0.717333 0.0953369 0.48 0.288004 0.288C0.48067 0.0960001 0.718003 0 1 0H15C15.2833 0 15.521 0.0960001 15.713 0.288C15.905 0.48 16.0007 0.717333 16 1C15.9993 1.28267 15.9033 1.52033 15.712 1.713C15.5207 1.90567 15.2833 2.00133 15 2H1Z" fill="#D3DFE6"/>
</svg>
