<svg width="20" height="12" viewBox="0 0 20 12" fill="none" xmlns="http://www.w3.org/2000/svg">
<path d="M1.93899 7.318C1.84947 7.56242 1.66816 7.76229 1.43361 7.87516C1.19905 7.98803 0.929735 8.00499 0.682873 7.92244C0.436012 7.83989 0.231066 7.66434 0.111581 7.43309C-0.00790345 7.20184 -0.0325091 6.93311 0.0429924 6.684C0.0796207 6.57426 0.120993 6.46416 0.166992 6.358C0.246992 6.168 0.364992 5.906 0.526992 5.596C0.856992 4.976 1.37099 4.15 2.12899 3.324C3.65899 1.654 6.16499 0 9.99099 0C13.817 0 16.323 1.654 17.853 3.324C18.669 4.22043 19.3313 5.24558 19.813 6.358L19.905 6.584C19.911 6.6 19.931 6.704 19.951 6.804L19.991 7C19.991 7 20.159 7.666 19.307 7.948C19.0561 8.03179 18.7822 8.01275 18.5453 7.89505C18.3084 7.77735 18.1278 7.57058 18.043 7.32V7.314L18.031 7.282L17.969 7.126C17.5761 6.2275 17.039 5.39925 16.379 4.674C15.159 3.348 13.165 2 9.99099 2C6.81699 2 4.82299 3.346 3.60299 4.676C2.94313 5.40065 2.40606 6.22821 2.01299 7.126L1.95299 7.282L1.93899 7.318ZM9.99099 4C8.93013 4 7.91271 4.42143 7.16257 5.17157C6.41242 5.92172 5.99099 6.93913 5.99099 8C5.99099 9.06087 6.41242 10.0783 7.16257 10.8284C7.91271 11.5786 8.93013 12 9.99099 12C11.0519 12 12.0693 11.5786 12.8194 10.8284C13.5696 10.0783 13.991 9.06087 13.991 8C13.991 6.93913 13.5696 5.92172 12.8194 5.17157C12.0693 4.42143 11.0519 4 9.99099 4ZM7.99099 8C7.99099 7.46957 8.20171 6.96086 8.57678 6.58579C8.95185 6.21071 9.46056 6 9.99099 6C10.5214 6 11.0301 6.21071 11.4052 6.58579C11.7803 6.96086 11.991 7.46957 11.991 8C11.991 8.53043 11.7803 9.03914 11.4052 9.41421C11.0301 9.78929 10.5214 10 9.99099 10C9.46056 10 8.95185 9.78929 8.57678 9.41421C8.20171 9.03914 7.99099 8.53043 7.99099 8Z" fill="black" fill-opacity="0.5"/>
</svg>
