<svg width="17" height="17" viewBox="0 0 17 17" fill="none" xmlns="http://www.w3.org/2000/svg">
<path d="M9.625 16.5H6.875C6.51033 16.5 6.16059 16.3551 5.90273 16.0973C5.64487 15.8394 5.5 15.4897 5.5 15.125V9.90687L0.405625 4.8125C0.147408 4.55582 0.00153504 4.20721 0 3.84312V1.375C0 1.01033 0.144866 0.660591 0.402728 0.402728C0.660591 0.144866 1.01033 0 1.375 0H15.125C15.4897 0 15.8394 0.144866 16.0973 0.402728C16.3551 0.660591 16.5 1.01033 16.5 1.375V3.84312C16.4985 4.20721 16.3526 4.55582 16.0944 4.8125L11 9.90687V15.125C11 15.4897 10.8551 15.8394 10.5973 16.0973C10.3394 16.3551 9.98967 16.5 9.625 16.5ZM1.375 1.375V3.84312L6.875 9.34312V15.125H9.625V9.34312L15.125 3.84312V1.375H1.375Z" fill="#56596D" fill-opacity="0.7"/>
</svg>
