<svg width="28" height="28" viewBox="0 0 28 28" fill="none" xmlns="http://www.w3.org/2000/svg">
<path d="M27.4758 9.58754L26.1148 8.22656L21.7008 12.6406L17.2868 8.22656L15.9258 9.58754L20.3398 14.0016L15.9258 18.4146L17.2877 19.7766L21.7008 15.3625L26.1158 19.7766L27.4758 18.4166L23.0618 14.0016L27.4758 9.58754Z" fill="#312783"/>
<path d="M2.45039 2.44922C1.93985 2.44922 1.45022 2.65203 1.08921 3.01304C0.728203 3.37405 0.525391 3.86368 0.525391 4.37422V7.42534C0.525318 7.67828 0.575094 7.92875 0.671873 8.16244C0.768651 8.39613 0.910536 8.60846 1.08942 8.78728L8.22539 15.9242V23.6242C8.22539 24.1348 8.4282 24.6244 8.78921 24.9854C9.15022 25.3464 9.63985 25.5492 10.1504 25.5492H14.0004C14.5109 25.5492 15.0006 25.3464 15.3616 24.9854C15.7226 24.6244 15.9254 24.1348 15.9254 23.6242V21.6992H14.0004V23.6242H10.1504V15.1253L9.58637 14.5623L2.45039 7.42631V4.37422H21.7004V6.29922H23.6254V4.37422C23.6254 3.86368 23.4226 3.37405 23.0616 3.01304C22.7006 2.65203 22.2109 2.44922 21.7004 2.44922H2.45039Z" fill="#56596D" fill-opacity="0.7"/>
</svg>
