<svg width="24" height="24" viewBox="0 0 24 24" fill="none" xmlns="http://www.w3.org/2000/svg">
<g clip-path="url(#clip0_1912_6987)">
<path d="M0.75 12.0002C0.75 16.9127 3.9 21.0752 8.25 22.6127V1.3877C3.9 2.9252 0.75 7.08769 0.75 12.0002Z" fill="#ED4C5C"/>
<path d="M12 0.75C10.6875 0.75 9.4125 0.975 8.25 1.3875V8.25H22.6125C21.075 3.9 16.9125 0.75 12 0.75Z" fill="#699635"/>
<path d="M22.6125 8.25H8.25V15.75H22.6125C23.025 14.5875 23.25 13.3125 23.25 12C23.25 10.6875 23.025 9.4125 22.6125 8.25Z" fill="#F9F9F9"/>
<path d="M8.25 15.75V22.6125C9.4125 23.025 10.6875 23.25 12 23.25C16.9125 23.25 21.075 20.1375 22.6125 15.75H8.25Z" fill="#3E4347"/>
</g>
<defs>
<clipPath id="clip0_1912_6987">
<rect width="24" height="24" fill="white"/>
</clipPath>
</defs>
</svg>
