<svg width="16" height="16" viewBox="0 0 16 16" fill="none" xmlns="http://www.w3.org/2000/svg">
<path d="M8.00039 1.60156C7.1517 1.60156 6.33777 1.9387 5.73765 2.53882C5.13753 3.13894 4.80039 3.95287 4.80039 4.80156C4.80039 5.65026 5.13753 6.46419 5.73765 7.0643C6.33777 7.66442 7.1517 8.00156 8.00039 8.00156C8.84908 8.00156 9.66302 7.66442 10.2631 7.0643C10.8632 6.46419 11.2004 5.65026 11.2004 4.80156C11.2004 3.95287 10.8632 3.13894 10.2631 2.53882C9.66302 1.9387 8.84908 1.60156 8.00039 1.60156ZM5.60039 4.80156C5.60039 4.16504 5.85325 3.55459 6.30333 3.10451C6.75342 2.65442 7.36387 2.40156 8.00039 2.40156C8.63691 2.40156 9.24736 2.65442 9.69745 3.10451C10.1475 3.55459 10.4004 4.16504 10.4004 4.80156C10.4004 5.43808 10.1475 6.04853 9.69745 6.49862C9.24736 6.94871 8.63691 7.20156 8.00039 7.20156C7.36387 7.20156 6.75342 6.94871 6.30333 6.49862C5.85325 6.04853 5.60039 5.43808 5.60039 4.80156ZM4.00759 8.80156C3.79687 8.80061 3.58804 8.8413 3.39309 8.92128C3.19813 9.00127 3.0209 9.11897 2.87156 9.26764C2.72223 9.41631 2.60373 9.59301 2.52287 9.7876C2.44201 9.98219 2.40039 10.1908 2.40039 10.4016C2.40039 11.7544 3.06679 12.7744 4.10839 13.4392C5.13399 14.0928 6.51639 14.4016 8.00039 14.4016C9.48439 14.4016 10.8668 14.0928 11.8924 13.4392C12.934 12.7752 13.6004 11.7536 13.6004 10.4016C13.6004 9.97722 13.4318 9.57025 13.1318 9.27019C12.8317 8.97013 12.4247 8.80156 12.0004 8.80156H4.00759ZM3.20039 10.4016C3.20039 9.95916 3.55879 9.60156 4.00759 9.60156H12.0004C12.2126 9.60156 12.416 9.68585 12.5661 9.83588C12.7161 9.98591 12.8004 10.1894 12.8004 10.4016C12.8004 11.4488 12.3028 12.2288 11.462 12.764C10.606 13.3104 9.38839 13.6016 8.00039 13.6016C6.61239 13.6016 5.39479 13.3104 4.53879 12.764C3.69879 12.228 3.20039 11.4496 3.20039 10.4016Z" fill="#56596D"/>
</svg>
