<svg width="40" height="40" viewBox="0 0 40 40" fill="none" xmlns="http://www.w3.org/2000/svg">
<path d="M32.5 29.1667C32.5 30.2717 32.061 31.3315 31.2796 32.1129C30.4982 32.8943 29.4384 33.3333 28.3333 33.3333C27.2283 33.3333 26.1685 32.8943 25.3871 32.1129C24.6057 31.3315 24.1667 30.2717 24.1667 29.1667C24.1667 28.0616 24.6057 27.0018 25.3871 26.2204C26.1685 25.439 27.2283 25 28.3333 25C29.4384 25 30.4982 25.439 31.2796 26.2204C32.061 27.0018 32.5 28.0616 32.5 29.1667ZM15.8333 29.1667C15.8333 30.2717 15.3943 31.3315 14.6129 32.1129C13.8315 32.8943 12.7717 33.3333 11.6667 33.3333C10.5616 33.3333 9.50179 32.8943 8.72039 32.1129C7.93899 31.3315 7.5 30.2717 7.5 29.1667C7.5 28.0616 7.93899 27.0018 8.72039 26.2204C9.50179 25.439 10.5616 25 11.6667 25C12.7717 25 13.8315 25.439 14.6129 26.2204C15.3943 27.0018 15.8333 28.0616 15.8333 29.1667Z" stroke="#455956" stroke-width="2"/>
<path d="M24.1666 29.166H15.8333M32.5 29.166H33.7716C34.1383 29.166 34.3216 29.166 34.475 29.146C35.0267 29.0773 35.5398 28.8266 35.9331 28.4336C36.3264 28.0406 36.5775 27.5277 36.6466 26.976C36.6666 26.821 36.6666 26.6377 36.6666 26.271V21.666C36.6666 18.7928 35.5253 16.0373 33.4936 14.0057C31.462 11.974 28.7065 10.8327 25.8333 10.8327M25 25.8327V11.666C25 9.30935 25 8.13102 24.2666 7.39935C23.5366 6.66602 22.3583 6.66602 20 6.66602H8.33331C5.97665 6.66602 4.79831 6.66602 4.06665 7.39935C3.33331 8.12935 3.33331 9.30768 3.33331 11.666V24.9993C3.33331 26.5577 3.33331 27.336 3.66831 27.916C3.88773 28.296 4.2033 28.6116 4.58331 28.831C5.16331 29.166 5.94165 29.166 7.49998 29.166" stroke="#455956" stroke-width="2" stroke-linecap="round" stroke-linejoin="round"/>
<path d="M15.545 19.9993L18.0216 18.0427C19.34 16.9993 20 16.4793 20 15.8327M20 15.8327C20 15.186 19.34 14.666 18.0216 13.6227L15.545 11.666M20 15.8327H8.33331" stroke="#455956" stroke-width="2" stroke-linecap="round" stroke-linejoin="round"/>
</svg>
