<svg width="56" height="56" viewBox="0 0 56 56" fill="none" xmlns="http://www.w3.org/2000/svg">
<rect width="56" height="56" rx="11.2" fill="#D5EDE4"/>
<path d="M32.8462 30.7339L28 35.5801L32.8462 40.4262M23.1539 24.2724L28 19.4262L23.1539 14.5801" stroke="#223862" stroke-width="2.15385" stroke-linecap="round" stroke-linejoin="round"/>
<path d="M28 35.5816H37.6923C38.8348 35.5816 39.9305 35.1277 40.7383 34.3199C41.5462 33.512 42 32.4164 42 31.2739V23.7354C42 22.593 41.5462 21.4973 40.7383 20.6894C39.9305 19.8816 38.8348 19.4277 37.6923 19.4277H34.4615M28 19.4277H18.3077C17.1652 19.4277 16.0695 19.8816 15.2617 20.6894C14.4538 21.4973 14 22.593 14 23.7354V31.2739C14 32.4164 14.4538 33.512 15.2617 34.3199C16.0695 35.1277 17.1652 35.5816 18.3077 35.5816H21.5385" stroke="#223862" stroke-width="2.15385" stroke-linecap="round" stroke-linejoin="round"/>
</svg>
