<svg width="10" height="10" viewBox="0 0 10 10" fill="none" xmlns="http://www.w3.org/2000/svg">
<path d="M2.04837 1.1983L9.03769 8.18763C9.29819 8.44813 9.3194 8.84948 9.08521 9.08367C8.85102 9.31787 8.44966 9.29665 8.18916 9.03616L1.19984 2.04683L1.19984 8.99797C1.1971 9.15527 1.1327 9.30521 1.02049 9.41548C0.908283 9.52575 0.757252 9.58755 0.599928 9.58755C0.442604 9.58755 0.291574 9.52575 0.179367 9.41548C0.0671596 9.30521 0.00275297 9.15527 1.87881e-05 8.99797L1.95784e-05 1.79906C-5.61806e-05 1.56258 0.0464648 1.32841 0.136926 1.10992C0.227386 0.891429 0.360013 0.692905 0.527227 0.52569C0.694441 0.358476 0.892965 0.225849 1.11146 0.135389C1.32995 0.0449282 1.56412 -0.00159286 1.8006 -0.0015171L8.99951 -0.00151794C9.07917 -0.00290272 9.1583 0.0115928 9.2323 0.0411195C9.3063 0.0706459 9.37367 0.114612 9.4305 0.170456C9.48732 0.226301 9.53245 0.292902 9.56326 0.366375C9.59407 0.439848 9.60994 0.518721 9.60993 0.598393C9.60993 0.678063 9.59407 0.756936 9.56326 0.830409C9.53245 0.903882 9.48732 0.970483 9.4305 1.02633C9.37367 1.08217 9.3063 1.12614 9.2323 1.15567C9.1583 1.18519 9.07917 1.19969 8.99951 1.1983L2.04837 1.1983Z" fill="#19C767"/>
</svg>
