<svg width="16" height="16" viewBox="0 0 16 16" fill="none" xmlns="http://www.w3.org/2000/svg">
<g clip-path="url(#clip0_2007_8702)">
<path d="M11.2569 11.6454L4.26762 4.65612C4.00712 4.39562 3.98591 3.99427 4.2201 3.76008C4.4543 3.52588 4.85565 3.5471 5.11615 3.80759L12.1055 10.7969L12.1055 3.84578C12.1082 3.68848 12.1726 3.53854 12.2848 3.42827C12.397 3.318 12.5481 3.2562 12.7054 3.2562C12.8627 3.2562 13.0137 3.318 13.1259 3.42827C13.2382 3.53854 13.3026 3.68848 13.3053 3.84578L13.3053 11.0447C13.3054 11.2812 13.2588 11.5153 13.1684 11.7338C13.0779 11.9523 12.9453 12.1508 12.7781 12.3181C12.6109 12.4853 12.4123 12.6179 12.1939 12.7084C11.9754 12.7988 11.7412 12.8453 11.5047 12.8453L4.3058 12.8453C4.22615 12.8467 4.14701 12.8322 4.07301 12.8026C3.99902 12.7731 3.93164 12.7291 3.87482 12.6733C3.81799 12.6174 3.77286 12.5508 3.74205 12.4774C3.71124 12.4039 3.69538 12.325 3.69538 12.2454C3.69538 12.1657 3.71125 12.0868 3.74205 12.0133C3.77286 11.9399 3.81799 11.8733 3.87482 11.8174C3.93164 11.7616 3.99901 11.7176 4.07301 11.6881C4.14701 11.6586 4.22615 11.6441 4.3058 11.6454L11.2569 11.6454Z" fill="#DD5959"/>
</g>
<defs>
<clipPath id="clip0_2007_8702">
<rect width="16" height="16" fill="white" transform="matrix(-1 0 0 -1 16 16)"/>
</clipPath>
</defs>
</svg>
