<svg width="18" height="19" viewBox="0 0 18 19" fill="none" xmlns="http://www.w3.org/2000/svg">
<path d="M1.616 18.231C1.15533 18.231 0.771 18.077 0.463 17.769C0.155 17.461 0.000666667 17.0767 0 16.616V7.84603C0 7.38603 0.154333 7.00203 0.463 6.69403C0.771667 6.38603 1.15567 6.23169 1.615 6.23103H16.385C16.845 6.23103 17.229 6.38536 17.537 6.69403C17.845 7.00269 17.9993 7.38703 18 7.84703V16.616C18 17.076 17.8457 17.4604 17.537 17.769C17.2283 18.0777 16.8443 18.2317 16.385 18.231H1.616ZM6 16.001H12C12.2067 16.001 12.3867 15.9274 12.54 15.78C12.6933 15.6334 12.77 15.4504 12.77 15.231C12.77 15.0244 12.6933 14.8444 12.54 14.691C12.3867 14.5377 12.2067 14.461 12 14.461H6C5.79333 14.461 5.61333 14.5347 5.46 14.682C5.30667 14.8287 5.23 15.0117 5.23 15.231C5.23 15.4377 5.30667 15.6177 5.46 15.771C5.61333 15.9244 5.79333 16.001 6 16.001ZM5.106 3.00103H7C7.14267 3.00103 7.26167 3.04869 7.357 3.14403C7.45233 3.23936 7.5 3.35803 7.5 3.50003C7.5 3.64203 7.45233 3.76103 7.357 3.85703C7.26167 3.95303 7.14267 4.00069 7 4.00003H4.308C4.076 4.00003 3.88333 3.92336 3.73 3.77003C3.57667 3.61669 3.5 3.42403 3.5 3.19203V0.501027C3.5 0.359027 3.54767 0.24036 3.643 0.145027C3.73833 0.0496937 3.85733 0.00136036 4 2.7027e-05C4.14267 -0.00130631 4.26167 0.0466937 4.357 0.144027C4.45233 0.24136 4.5 0.360027 4.5 0.500027V2.12103C5.008 1.47103 5.642 0.955027 6.402 0.573027C7.162 0.191027 7.98967 2.7027e-05 8.885 2.7027e-05C10.077 2.7027e-05 11.147 0.328694 12.095 0.986027C13.0417 1.64336 13.7197 2.50703 14.129 3.57703C14.1697 3.69103 14.1463 3.79003 14.059 3.87403C13.9723 3.95803 13.866 4.00003 13.74 4.00003C13.602 4.00003 13.4677 3.96936 13.337 3.90803C13.2063 3.84669 13.1163 3.75669 13.067 3.63803C12.6957 2.83603 12.1347 2.19603 11.384 1.71803C10.6333 1.23936 9.8 1.00003 8.884 1.00003C8.10267 1.00003 7.378 1.18069 6.71 1.54203C6.042 1.90269 5.50733 2.38969 5.106 3.00103ZM3 10.001C3.20667 10.001 3.38667 9.92436 3.54 9.77103C3.69333 9.61769 3.77 9.43769 3.77 9.23103C3.77 9.02436 3.69333 8.84436 3.54 8.69103C3.38667 8.53769 3.20667 8.46103 3 8.46103C2.79333 8.46103 2.61333 8.53769 2.46 8.69103C2.30667 8.84436 2.23 9.02436 2.23 9.23103C2.23 9.43769 2.30667 9.61769 2.46 9.77103C2.61333 9.92436 2.79333 10.001 3 10.001ZM6 10.001C6.20667 10.001 6.38667 9.92436 6.54 9.77103C6.69333 9.61769 6.77 9.43769 6.77 9.23103C6.77 9.02436 6.69333 8.84436 6.54 8.69103C6.38667 8.53769 6.20667 8.46103 6 8.46103C5.79333 8.46103 5.61333 8.53769 5.46 8.69103C5.30667 8.84436 5.23 9.02436 5.23 9.23103C5.23 9.43769 5.30667 9.61769 5.46 9.77103C5.61333 9.92436 5.79333 10.001 6 10.001ZM9 10.001C9.20667 10.001 9.38667 9.92436 9.54 9.77103C9.69333 9.61769 9.77 9.43769 9.77 9.23103C9.77 9.02436 9.69333 8.84436 9.54 8.69103C9.38667 8.53769 9.20667 8.46103 9 8.46103C8.79333 8.46103 8.61333 8.53769 8.46 8.69103C8.30667 8.84436 8.23 9.02436 8.23 9.23103C8.23 9.43769 8.30667 9.61769 8.46 9.77103C8.61333 9.92436 8.79333 10.001 9 10.001ZM12 10.001C12.2067 10.001 12.3867 9.92436 12.54 9.77103C12.6933 9.61769 12.77 9.43769 12.77 9.23103C12.77 9.02436 12.6933 8.84436 12.54 8.69103C12.3867 8.53769 12.2067 8.46103 12 8.46103C11.7933 8.46103 11.6133 8.53769 11.46 8.69103C11.3067 8.84436 11.23 9.02436 11.23 9.23103C11.23 9.43769 11.3067 9.61769 11.46 9.77103C11.6133 9.92436 11.7933 10.001 12 10.001ZM15 10.001C15.2067 10.001 15.3867 9.92436 15.54 9.77103C15.6933 9.61769 15.77 9.43769 15.77 9.23103C15.77 9.02436 15.6933 8.84436 15.54 8.69103C15.3867 8.53769 15.2067 8.46103 15 8.46103C14.7933 8.46103 14.6133 8.53769 14.46 8.69103C14.3067 8.84436 14.23 9.02436 14.23 9.23103C14.23 9.43769 14.3067 9.61769 14.46 9.77103C14.6133 9.92436 14.7933 10.001 15 10.001ZM3 13.001C3.20667 13.001 3.38667 12.9244 3.54 12.771C3.69333 12.6177 3.77 12.4377 3.77 12.231C3.77 12.0244 3.69333 11.8444 3.54 11.691C3.38667 11.5377 3.20667 11.461 3 11.461C2.79333 11.461 2.61333 11.5377 2.46 11.691C2.30667 11.8444 2.23 12.0244 2.23 12.231C2.23 12.4377 2.30667 12.6177 2.46 12.771C2.61333 12.9244 2.79333 13.001 3 13.001ZM6 13.001C6.20667 13.001 6.38667 12.9244 6.54 12.771C6.69333 12.6177 6.77 12.4377 6.77 12.231C6.77 12.0244 6.69333 11.8444 6.54 11.691C6.38667 11.5377 6.20667 11.461 6 11.461C5.79333 11.461 5.61333 11.5377 5.46 11.691C5.30667 11.8444 5.23 12.0244 5.23 12.231C5.23 12.4377 5.30667 12.6177 5.46 12.771C5.61333 12.9244 5.79333 13.001 6 13.001ZM9 13.001C9.20667 13.001 9.38667 12.9244 9.54 12.771C9.69333 12.6177 9.77 12.4377 9.77 12.231C9.77 12.0244 9.69333 11.8444 9.54 11.691C9.38667 11.5377 9.20667 11.461 9 11.461C8.79333 11.461 8.61333 11.5377 8.46 11.691C8.30667 11.8444 8.23 12.0244 8.23 12.231C8.23 12.4377 8.30667 12.6177 8.46 12.771C8.61333 12.9244 8.79333 13.001 9 13.001ZM12 13.001C12.2067 13.001 12.3867 12.9244 12.54 12.771C12.6933 12.6177 12.77 12.4377 12.77 12.231C12.77 12.0244 12.6933 11.8444 12.54 11.691C12.3867 11.5377 12.2067 11.461 12 11.461C11.7933 11.461 11.6133 11.5377 11.46 11.691C11.3067 11.8444 11.23 12.0244 11.23 12.231C11.23 12.4377 11.3067 12.6177 11.46 12.771C11.6133 12.9244 11.7933 13.001 12 13.001ZM14.23 12.231C14.23 12.4377 14.3067 12.6177 14.46 12.771C14.6133 12.9244 14.7933 13.001 15 13.001C15.2067 13.001 15.3867 12.9244 15.54 12.771C15.6933 12.6177 15.77 12.4377 15.77 12.231C15.77 12.0244 15.6933 11.8444 15.54 11.691C15.3867 11.5377 15.2067 11.461 15 11.461C14.7933 11.461 14.6133 11.5377 14.46 11.691C14.3067 11.8444 14.23 12.0244 14.23 12.231Z" fill="#455956"/>
</svg>
