<svg width="15" height="24" viewBox="0 0 15 24" fill="none" xmlns="http://www.w3.org/2000/svg">
<path d="M11.168 0C11.168 3.2 10.64 5.6 9.6 7.2C9.072 8.016 8.544 8.608 8 9.008V11.2C8.528 10.096 9.312 9.104 10.304 8.352L12.8 6.4C12.8 9.952 11.264 13.344 8.592 15.68L8 16.192V18.656C9.28 16.144 11.376 14.128 13.968 12.976L14.4 12.8V14.4C14.4004 16.2442 13.7635 18.032 12.5973 19.4606C11.431 20.8893 9.80698 21.8712 8 22.24V24H6.4V22.24C4.65581 21.8803 3.08063 20.9511 1.92212 19.5985C0.763602 18.246 0.0874609 16.5467 0 14.768V12.8L0.432 12.976C3.024 14.128 5.12 16.144 6.4 18.656V16.208L5.808 15.68C4.54257 14.5761 3.5175 13.2239 2.79639 11.7074C2.07527 10.1908 1.6735 8.54227 1.616 6.864L1.6 6.4L4.096 8.352C5.07813 9.10607 5.86768 10.082 6.4 11.2V9.024C5.856 8.624 5.328 8.016 4.8 7.2C3.76 5.6 3.232 3.2 3.232 0C4.912 1.008 6.288 2.72 7.088 4.8H7.312C8.112 2.72 9.488 1.008 11.168 0Z" fill="#3796C5"/>
</svg>
