<svg width="26" height="22" viewBox="0 0 26 22" fill="none" xmlns="http://www.w3.org/2000/svg">
<path fill-rule="evenodd" clip-rule="evenodd" d="M14.8818 4.09034C15.3535 4.5653 15.3638 5.33142 14.9024 5.79604L14.6542 6.04591L16.6537 8.02625L11.5965 12.9348L9.64825 10.9028L2.05421 18.5495C1.59483 19.0121 0.831943 19.0038 0.360264 18.5289C-0.111416 18.0539 -0.12167 17.2878 0.339756 16.8232L7.96251 9.14755L6.43673 7.5513L11.2171 2.64071L12.9295 4.33195L13.192 4.06763C13.6493 3.60507 14.4102 3.61539 14.8818 4.09034ZM25.1993 20.6269C25.1993 21.1618 24.7769 21.5996 24.258 21.5996L13.3868 21.6016C12.868 21.6016 12.4455 21.1638 12.4455 20.629C12.4455 20.1045 12.8598 19.6564 13.3868 19.6564H14.5455C14.2543 19.4912 14.0554 19.1711 14.0554 18.8035C14.0554 18.279 14.4696 17.8309 14.9967 17.8309H22.6461C23.165 17.8289 23.5895 18.2666 23.5895 18.8015C23.5895 19.169 23.3885 19.4912 23.0952 19.6564H24.256C24.7769 19.6543 25.1993 20.0921 25.1993 20.6269ZM11.0079 0.288662C11.3832 0.666559 11.3914 1.2778 11.0243 1.64537L5.4462 7.2622C5.07911 7.63183 4.47413 7.62358 4.09884 7.24568C3.72354 6.86778 3.71534 6.25654 4.08243 5.88897L9.66056 0.272142C10.0276 -0.0974947 10.6326 -0.0892347 11.0079 0.288662ZM18.9383 8.27199C19.3136 8.64989 19.3218 9.26113 18.9547 9.6287L13.3766 15.2455C13.0095 15.6152 12.4045 15.6069 12.0292 15.229C11.6539 14.8511 11.6457 14.2399 12.0128 13.8723L17.5909 8.25547C17.956 7.88583 18.5609 7.89409 18.9383 8.27199Z" fill="#3796C5"/>
</svg>
