<svg width="20" height="18" viewBox="0 0 20 18" fill="none" xmlns="http://www.w3.org/2000/svg">
<path d="M4.023 1.561C4.01615 1.35845 4.05015 1.1566 4.12297 0.967474C4.19578 0.778345 4.30592 0.605808 4.44683 0.460145C4.58773 0.314482 4.75651 0.198673 4.94312 0.11962C5.12973 0.0405658 5.33034 -0.00011538 5.533 2.45787e-07H10.5C11.32 2.45787e-07 11.99 0.654 12.006 1.476C12.041 3.244 12.274 9.546 13.786 16H14.786C13.825 11.896 13.381 7.854 13.176 5H14.434C15.34 5 15.989 5.773 15.964 6.595C15.93 7.756 16.024 11.029 17.711 16H19C19.2652 16 19.5196 16.1054 19.7071 16.2929C19.8946 16.4804 20 16.7348 20 17C20 17.2652 19.8946 17.5196 19.7071 17.7071C19.5196 17.8946 19.2652 18 19 18H1C0.734784 18 0.48043 17.8946 0.292893 17.7071C0.105357 17.5196 0 17.2652 0 17C0 16.7348 0.105357 16.4804 0.292893 16.2929C0.48043 16.1054 0.734784 16 1 16H2.257C4.112 9.616 4.08 3.365 4.023 1.561Z" fill="#3796C5"/>
</svg>
