<svg width="23" height="19" viewBox="0 0 23 19" fill="none" xmlns="http://www.w3.org/2000/svg">
<path d="M8.73 1.21892C7.03641 0.410328 4.66922 0.014234 1.5 0.000171524C1.20111 -0.00388921 0.908088 0.0832662 0.660002 0.250015C0.456372 0.387654 0.289683 0.573222 0.174597 0.790397C0.0595116 1.00757 -0.000444544 1.2497 2.4815e-06 1.49548V14.9064C2.4815e-06 15.813 0.645002 16.4969 1.5 16.4969C4.83141 16.4969 8.17313 16.8081 10.1747 18.7C10.2021 18.726 10.2365 18.7434 10.2737 18.75C10.3108 18.7566 10.3491 18.7521 10.3838 18.7371C10.4185 18.7222 10.4479 18.6973 10.4686 18.6657C10.4893 18.6341 10.5002 18.5971 10.5 18.5594V2.75736C10.5001 2.65075 10.4772 2.54537 10.4331 2.44833C10.3889 2.3513 10.3245 2.26486 10.2441 2.19486C9.78559 1.80291 9.2763 1.47463 8.73 1.21892ZM21.84 0.248609C21.5918 0.0822749 21.2988 -0.00439389 21 0.000171524C17.8308 0.014234 15.4636 0.408453 13.77 1.21892C13.2237 1.47416 12.7143 1.80179 12.2555 2.19298C12.1752 2.26309 12.1109 2.34955 12.0668 2.44657C12.0228 2.5436 12 2.64893 12 2.75548V18.5585C12 18.5947 12.0107 18.6302 12.0307 18.6604C12.0508 18.6907 12.0793 18.7143 12.1128 18.7284C12.1462 18.7424 12.1831 18.7463 12.2187 18.7395C12.2544 18.7327 12.2872 18.7156 12.3131 18.6902C13.5164 17.4949 15.6281 16.4955 21.0019 16.496C21.3997 16.496 21.7812 16.3379 22.0625 16.0566C22.3438 15.7753 22.5019 15.3938 22.5019 14.996V1.49595C22.5024 1.24968 22.4423 1.00707 22.3269 0.789526C22.2115 0.571985 22.0442 0.386212 21.84 0.248609Z" fill="#3796C5"/>
</svg>
