<svg width="21" height="18" viewBox="0 0 21 18" fill="none" xmlns="http://www.w3.org/2000/svg">
<path d="M12.2895 0.513477C11.7529 0.177929 11.1328 0 10.5 0C9.86716 0 9.24706 0.177929 8.7105 0.513477L0.3885 5.71698C0.270755 5.78175 0.172576 5.87697 0.104232 5.99268C0.0358877 6.10839 -0.000111094 6.24034 2.57544e-07 6.37473V12.7497C2.57544e-07 12.9486 0.0790179 13.1394 0.21967 13.2801C0.360322 13.4207 0.551088 13.4997 0.75 13.4997C0.948913 13.4997 1.13968 13.4207 1.28033 13.2801C1.42098 13.1394 1.5 12.9486 1.5 12.7497V7.72998L8.7105 12.239C9.24706 12.5745 9.86716 12.7525 10.5 12.7525C11.1328 12.7525 11.7529 12.5745 12.2895 12.239L20.6475 7.01148C20.7552 6.94402 20.844 6.8503 20.9056 6.73912C20.9671 6.62794 20.9994 6.50294 20.9994 6.37585C20.9994 6.24877 20.9671 6.12377 20.9056 6.01258C20.844 5.9014 20.7552 5.80768 20.6475 5.74023L12.2895 0.513477ZM12.8857 13.193L17.25 10.4622V14.6615C17.2499 14.8528 17.1766 15.0369 17.0452 15.176C16.2049 16.0686 15.1906 16.7797 14.0649 17.2653C12.9392 17.751 11.726 18.0009 10.5 17.9997C7.9215 17.9997 5.595 16.9137 3.95475 15.1767C3.82337 15.0376 3.75012 14.8536 3.75 14.6622V10.4637L8.11425 13.1922C8.82961 13.6395 9.65631 13.8767 10.5 13.8767C11.3437 13.8767 12.1704 13.6403 12.8857 13.193Z" fill="#3796C5"/>
</svg>
