<svg width="175" height="9" viewBox="0 0 175 9" fill="none" xmlns="http://www.w3.org/2000/svg">
<path d="M0 4.33008L7.5 8.66021V-4.91142e-05L0 4.33008ZM167 4.33008C167 6.53922 168.791 8.33008 171 8.33008C173.209 8.33008 175 6.53922 175 4.33008C175 2.12094 173.209 0.330078 171 0.330078C168.791 0.330078 167 2.12094 167 4.33008ZM6.10714 4.33008V5.08008H10.1786V4.33008V3.58008H6.10714V4.33008ZM14.25 4.33008V5.08008H18.3214V4.33008V3.58008H14.25V4.33008ZM22.3929 4.33008V5.08008H26.4643V4.33008V3.58008H22.3929V4.33008ZM30.5357 4.33008V5.08008H34.6071V4.33008V3.58008H30.5357V4.33008ZM38.6786 4.33008V5.08008H42.75V4.33008V3.58008H38.6786V4.33008ZM46.8214 4.33008V5.08008H50.8929V4.33008V3.58008H46.8214V4.33008ZM54.9643 4.33008V5.08008H59.0357V4.33008V3.58008H54.9643V4.33008ZM63.1072 4.33008V5.08008H67.1786V4.33008V3.58008H63.1072V4.33008ZM71.25 4.33008V5.08008H75.3214V4.33008V3.58008H71.25V4.33008ZM79.3929 4.33008V5.08008H83.4643V4.33008V3.58008H79.3929V4.33008ZM87.5357 4.33008V5.08008H91.6071V4.33008V3.58008H87.5357V4.33008ZM95.6786 4.33008V5.08008H99.75V4.33008V3.58008H95.6786V4.33008ZM103.821 4.33008V5.08008H107.893V4.33008V3.58008H103.821V4.33008ZM111.964 4.33008V5.08008H116.036V4.33008V3.58008H111.964V4.33008ZM120.107 4.33008V5.08008H124.179V4.33008V3.58008H120.107V4.33008ZM128.25 4.33008V5.08008H132.321V4.33008V3.58008H128.25V4.33008ZM136.393 4.33008V5.08008H140.464V4.33008V3.58008H136.393V4.33008ZM144.536 4.33008V5.08008H148.607V4.33008V3.58008H144.536V4.33008ZM152.679 4.33008V5.08008H156.75V4.33008V3.58008H152.679V4.33008ZM160.821 4.33008V5.08008H164.893V4.33008V3.58008H160.821V4.33008ZM168.964 4.33008V5.08008H171V4.33008V3.58008H168.964V4.33008ZM0 4.33008L7.5 8.66021V-4.91142e-05L0 4.33008ZM167 4.33008C167 6.53922 168.791 8.33008 171 8.33008C173.209 8.33008 175 6.53922 175 4.33008C175 2.12094 173.209 0.330078 171 0.330078C168.791 0.330078 167 2.12094 167 4.33008ZM6.10714 4.33008V5.08008H10.1786V4.33008V3.58008H6.10714V4.33008ZM14.25 4.33008V5.08008H18.3214V4.33008V3.58008H14.25V4.33008ZM22.3929 4.33008V5.08008H26.4643V4.33008V3.58008H22.3929V4.33008ZM30.5357 4.33008V5.08008H34.6071V4.33008V3.58008H30.5357V4.33008ZM38.6786 4.33008V5.08008H42.75V4.33008V3.58008H38.6786V4.33008ZM46.8214 4.33008V5.08008H50.8929V4.33008V3.58008H46.8214V4.33008ZM54.9643 4.33008V5.08008H59.0357V4.33008V3.58008H54.9643V4.33008ZM63.1072 4.33008V5.08008H67.1786V4.33008V3.58008H63.1072V4.33008ZM71.25 4.33008V5.08008H75.3214V4.33008V3.58008H71.25V4.33008ZM79.3929 4.33008V5.08008H83.4643V4.33008V3.58008H79.3929V4.33008ZM87.5357 4.33008V5.08008H91.6071V4.33008V3.58008H87.5357V4.33008ZM95.6786 4.33008V5.08008H99.75V4.33008V3.58008H95.6786V4.33008ZM103.821 4.33008V5.08008H107.893V4.33008V3.58008H103.821V4.33008ZM111.964 4.33008V5.08008H116.036V4.33008V3.58008H111.964V4.33008ZM120.107 4.33008V5.08008H124.179V4.33008V3.58008H120.107V4.33008ZM128.25 4.33008V5.08008H132.321V4.33008V3.58008H128.25V4.33008ZM136.393 4.33008V5.08008H140.464V4.33008V3.58008H136.393V4.33008ZM144.536 4.33008V5.08008H148.607V4.33008V3.58008H144.536V4.33008ZM152.679 4.33008V5.08008H156.75V4.33008V3.58008H152.679V4.33008ZM160.821 4.33008V5.08008H164.893V4.33008V3.58008H160.821V4.33008ZM168.964 4.33008V5.08008H171V4.33008V3.58008H168.964V4.33008Z" fill="#455956"/>
</svg>
