<!--?xml version="1.0" encoding="utf-8"?-->
<!-- Svg Vector Icons : http://www.onlinewebfonts.com/icon -->

<svg version="1.1" xmlns="http://www.w3.org/2000/svg" xmlns:xlink="http://www.w3.org/1999/xlink" x="0px" y="0px" viewBox="0 0 256 256" enable-background="new 0 0 256 256" xml:space="preserve">
<metadata> Svg Vector Icons : http://www.onlinewebfonts.com/icon </metadata>
<g><g><g><path fill="#FFFFFF" data-title="Layer 0" xs="0" d="M118.4,10.1c-11,2-17.3,4-24.9,7.9C72.9,28.6,58.6,47.7,53.9,71.2c-1.4,6.9-1.2,21,0.3,27.9c4.6,21.3,17.3,44,38.9,69.3c5.7,6.7,24.5,25.8,31.1,31.6l3.9,3.4l3.9-3.4c6.5-5.8,25.3-24.9,31-31.6c21.7-25.5,34.5-48.4,38.9-69.7c1.5-7.1,1.6-20.7,0.2-27.6c-4.6-23.4-19-42.7-39.6-53.2c-6.1-3.1-10.9-4.9-17.8-6.5c-4.5-1.1-6.8-1.3-15.2-1.4C124.1,10,119.1,10,118.4,10.1z M134,58.6c12.1,2.9,20.8,13.7,20.9,26c0.1,7.4-2.7,14.2-8,19.5c-10.5,10.5-27.4,10.5-37.9,0c-10.6-10.6-10.7-27.5-0.2-38.1C115.6,59.3,125.1,56.5,134,58.6z"/><path fill="#FFFFFF" data-title="Layer 1" xs="1" d="M67.4,177.4c-3.9,3.1-7.1,6.4-9.6,10.1c-9.4,13.9-5.5,30.8,9.8,42.2c9.9,7.4,22.2,12.2,39.2,15.2c5.6,1,8.1,1.1,21.2,1.1c13,0,15.7-0.1,21.2-1.1c26.2-4.6,43.8-14.6,51.1-29.1c6.5-12.9,2-27.9-11.4-38.2l-3-2.3l-2.6,3c-1.4,1.7-4.5,5.3-7,8.1c-2.5,2.8-4.4,5.2-4.4,5.4c0,0.2,0.5,0.5,1.2,0.8c2,0.9,6.9,5.8,8,7.8c1.2,2.4,1.2,3.7,0,6.3c-3.3,7.3-17.3,14.1-35.2,17.3c-7.2,1.3-28.7,1.3-35.9,0c-17.6-3.1-31.9-10.1-35.2-17.3c-1.2-2.6-1.2-3.9,0-6.3c1.1-2,6-6.9,8-7.8c0.7-0.3,1.2-0.7,1.2-0.8c0-0.2-1.4-1.9-3.2-3.9c-1.8-1.9-4.9-5.5-6.9-7.9s-3.8-4.4-4-4.3C69.8,175.6,68.6,176.4,67.4,177.4z"/></g></g></g>
</svg>