<svg width="20" height="20" viewBox="0 0 20 20" fill="none" xmlns="http://www.w3.org/2000/svg">
<path fill-rule="evenodd" clip-rule="evenodd" d="M9.38492 18.4444C9.38492 18.4444 3.33325 13.3477 3.33325 8.33268C3.33325 6.56457 4.03563 4.86888 5.28587 3.61864C6.53612 2.36839 8.23181 1.66602 9.99992 1.66602C11.768 1.66602 13.4637 2.36839 14.714 3.61864C15.9642 4.86888 16.6666 6.56457 16.6666 8.33268C16.6666 13.3477 10.6149 18.4444 10.6149 18.4444C10.2783 18.7544 9.72409 18.751 9.38492 18.4444ZM9.99992 11.2493C10.3829 11.2493 10.7622 11.1739 11.1161 11.0273C11.4699 10.8808 11.7915 10.6659 12.0623 10.3951C12.3332 10.1242 12.548 9.80271 12.6946 9.44884C12.8411 9.09498 12.9166 8.7157 12.9166 8.33268C12.9166 7.94966 12.8411 7.57039 12.6946 7.21652C12.548 6.86266 12.3332 6.54113 12.0623 6.27029C11.7915 5.99945 11.4699 5.78461 11.1161 5.63803C10.7622 5.49146 10.3829 5.41602 9.99992 5.41602C9.22637 5.41602 8.48451 5.72331 7.93752 6.27029C7.39054 6.81727 7.08325 7.55913 7.08325 8.33268C7.08325 9.10623 7.39054 9.8481 7.93752 10.3951C8.48451 10.9421 9.22637 11.2493 9.99992 11.2493Z" fill="#455956"/>
</svg>
