<svg width="40" height="40" viewBox="0 0 40 40" fill="none" xmlns="http://www.w3.org/2000/svg">
<path d="M27.925 3.33398H12.075C10.1433 3.33398 9.17833 3.33398 8.39833 3.60565C7.66322 3.86686 6.99809 4.29376 6.45445 4.85329C5.91081 5.41283 5.50325 6.08998 5.26333 6.83232C5 7.63565 5 8.62898 5 10.6173V33.9573C5 35.3873 6.64167 36.1473 7.68 35.1973C7.97131 34.9281 8.35337 34.7787 8.75 34.7787C9.14663 34.7787 9.52869 34.9281 9.82 35.1973L10.625 35.934C11.1353 36.4059 11.8049 36.668 12.5 36.668C13.1951 36.668 13.8647 36.4059 14.375 35.934C14.8853 35.462 15.5549 35.1999 16.25 35.1999C16.9451 35.1999 17.6147 35.462 18.125 35.934C18.6353 36.4059 19.3049 36.668 20 36.668C20.6951 36.668 21.3647 36.4059 21.875 35.934C22.3853 35.462 23.0549 35.1999 23.75 35.1999C24.4451 35.1999 25.1147 35.462 25.625 35.934C26.1353 36.4059 26.8049 36.668 27.5 36.668C28.1951 36.668 28.8647 36.4059 29.375 35.934L30.18 35.1973C30.4713 34.9281 30.8534 34.7787 31.25 34.7787C31.6466 34.7787 32.0287 34.9281 32.32 35.1973C33.3583 36.1473 35 35.3873 35 33.9573V10.6173C35 8.62898 35 7.63398 34.7367 6.83398C34.497 6.09134 34.0895 5.41385 33.5459 4.85402C33.0022 4.29418 32.337 3.86703 31.6017 3.60565C30.8217 3.33398 29.8567 3.33398 27.925 3.33398Z" stroke="#455956" stroke-width="2"/>
<path d="M15.8333 17.334L18.215 20.0007L24.1666 13.334" stroke="#455956" stroke-width="2" stroke-linecap="round" stroke-linejoin="round"/>
<path d="M12.5 25.834H27.5" stroke="#455956" stroke-width="2" stroke-linecap="round"/>
</svg>
