<svg width="14" height="23" viewBox="0 0 14 23" fill="none" xmlns="http://www.w3.org/2000/svg">
<path d="M1.41061 22.8571C1.03649 22.8571 0.6777 22.7127 0.413159 22.4555C0.148618 22.1983 0 21.8494 0 21.4857L0 5.38667C0 4.62952 0.631837 4.01524 1.41061 4.01524H3.0818C3.13535 4.01524 3.18465 4.02667 3.22971 4.04952L3.22776 4.04857V0.16C3.22776 0.0714286 3.30122 0 3.39233 0H9.28947C9.38057 0 9.45404 0.0714286 9.45404 0.16V4.02571C9.4796 4.01913 9.50596 4.01592 9.53241 4.01619H11.0165C11.7953 4.01619 12.4271 4.63048 12.4271 5.38762V9.22667C12.471 9.20477 12.5198 9.19396 12.5691 9.19524H13.3107C13.4929 9.19524 13.6408 9.33905 13.6408 9.51619V17.8705C13.6408 17.9556 13.606 18.0372 13.5441 18.0974C13.4822 18.1576 13.3982 18.1914 13.3107 18.1914H12.5691C12.5191 18.1927 12.4695 18.1816 12.4251 18.159L12.4271 18.16V21.4857C12.4271 21.8494 12.2785 22.1983 12.0139 22.4555C11.7494 22.7127 11.3906 22.8571 11.0165 22.8571H1.41061ZM8.58514 19.78V20.86C8.5854 20.9026 8.60293 20.9434 8.63392 20.9735C8.66491 21.0037 8.70687 21.0207 8.75069 21.021H10.0575C10.1013 21.0207 10.1433 21.0037 10.1742 20.9735C10.2052 20.9434 10.2228 20.9026 10.223 20.86V19.78C10.2225 19.7376 10.2049 19.697 10.1739 19.6671C10.1429 19.6372 10.1011 19.6202 10.0575 19.62H8.74873C8.70508 19.6202 8.66326 19.6372 8.6323 19.6671C8.60133 19.697 8.5837 19.7376 8.58318 19.78H8.58514ZM5.49355 19.78V20.86C5.49381 20.9026 5.51133 20.9434 5.54232 20.9735C5.57332 21.0037 5.61527 21.0207 5.6591 21.021H6.9649C7.00873 21.0207 7.05068 21.0037 7.08168 20.9735C7.11267 20.9434 7.13019 20.9026 7.13045 20.86V19.78C7.12994 19.7376 7.1123 19.697 7.08134 19.6671C7.05037 19.6372 7.00856 19.6202 6.9649 19.62H5.65812C5.61446 19.6202 5.57265 19.6372 5.54169 19.6671C5.51072 19.697 5.49406 19.7376 5.49355 19.78ZM2.40196 19.78V20.861C2.40196 20.9495 2.47543 21.021 2.56653 21.021H3.87331C3.91713 21.0207 3.95909 21.0037 3.99008 20.9735C4.02108 20.9434 4.0386 20.9026 4.03886 20.86V19.78C4.03834 19.7376 4.02071 19.697 3.98974 19.6671C3.95878 19.6372 3.91697 19.6202 3.87331 19.62H2.56653C2.52304 19.6205 2.48148 19.6375 2.45072 19.6674C2.41997 19.6973 2.40247 19.7377 2.40196 19.78ZM8.58416 17.3314V18.4114C8.58442 18.454 8.60194 18.4948 8.63294 18.525C8.66393 18.5551 8.70589 18.5721 8.74971 18.5724H10.0565C10.1003 18.5721 10.1423 18.5551 10.1733 18.525C10.2043 18.4948 10.2218 18.454 10.222 18.4114V17.3305C10.2215 17.2882 10.204 17.2478 10.1733 17.2179C10.1425 17.188 10.101 17.171 10.0575 17.1705H8.74776C8.70427 17.171 8.6627 17.188 8.63195 17.2179C8.60119 17.2478 8.58369 17.2882 8.58318 17.3305L8.58416 17.3314ZM5.49257 17.3314V18.4114C5.49283 18.454 5.51035 18.4948 5.54134 18.525C5.57234 18.5551 5.6143 18.5721 5.65812 18.5724H6.9649C7.00873 18.5721 7.05068 18.5551 7.08168 18.525C7.11267 18.4948 7.13019 18.454 7.13045 18.4114V17.3305C7.12994 17.2882 7.11244 17.2478 7.08169 17.2179C7.05093 17.188 7.00937 17.171 6.96588 17.1705H5.65714C5.61365 17.171 5.57209 17.188 5.54134 17.2179C5.51058 17.2478 5.49308 17.2891 5.49257 17.3314ZM2.40098 17.3314V18.4124C2.40098 18.501 2.47445 18.5724 2.56555 18.5724H3.87233C3.91615 18.5721 3.95811 18.5551 3.9891 18.525C4.0201 18.4948 4.03762 18.454 4.03788 18.4114V17.3305C4.03737 17.2882 4.01987 17.2478 3.98911 17.2179C3.95836 17.188 3.9168 17.171 3.87331 17.1705H2.56555C2.52206 17.171 2.4805 17.188 2.44974 17.2179C2.41899 17.2478 2.40149 17.2891 2.40098 17.3314ZM8.58318 14.8819V15.9629C8.58318 16.0514 8.65665 16.1229 8.74776 16.1229H10.0565C10.1 16.1224 10.1415 16.1053 10.1723 16.0754C10.2031 16.0455 10.2206 16.0051 10.2211 15.9629V14.8819C10.2205 14.8395 10.2029 14.7989 10.1719 14.769C10.141 14.7391 10.0992 14.7222 10.0555 14.7219H8.74873C8.70508 14.7222 8.66326 14.7391 8.6323 14.769C8.60133 14.7989 8.5837 14.8395 8.58318 14.8819ZM5.49159 14.8819V15.9629C5.49159 16.0514 5.56506 16.1229 5.65616 16.1229H6.9649C7.00839 16.1224 7.04995 16.1053 7.08071 16.0754C7.11146 16.0455 7.12896 16.0051 7.12947 15.9629V14.8819C7.12896 14.8395 7.11132 14.7989 7.08036 14.769C7.04939 14.7391 7.00758 14.7222 6.96392 14.7219H5.65714C5.61348 14.7222 5.57167 14.7391 5.54071 14.769C5.50974 14.7989 5.4921 14.8395 5.49159 14.8819ZM2.4 14.8819V15.9629C2.4 16.0514 2.47347 16.1229 2.56457 16.1229H3.87331C3.9168 16.1224 3.95836 16.1053 3.98911 16.0754C4.01987 16.0455 4.03737 16.0051 4.03788 15.9629V14.8819C4.03736 14.8395 4.01973 14.7989 3.98876 14.769C3.9578 14.7391 3.91599 14.7222 3.87233 14.7219H2.56555C2.52206 14.7224 2.4805 14.7394 2.44974 14.7693C2.41899 14.7992 2.40051 14.8396 2.4 14.8819ZM2.19429 8.48857V13.1667C2.19429 13.2552 2.26776 13.3267 2.35886 13.3267H9.96245C10.0059 13.3262 10.0475 13.3092 10.0783 13.2793C10.109 13.2494 10.1265 13.2089 10.127 13.1667V8.48857C10.1268 8.44596 10.1092 8.40517 10.0782 8.37504C10.0473 8.34491 10.0053 8.32787 9.96147 8.32762H2.35984C2.31601 8.32787 2.27405 8.34491 2.24306 8.37504C2.21207 8.40517 2.19454 8.44596 2.19429 8.48857ZM1.70057 5.93429V7.06762C1.70057 7.33333 1.92196 7.54857 2.19527 7.54857H10.4229C10.5541 7.54857 10.6799 7.4979 10.7727 7.4077C10.8654 7.31751 10.9176 7.19518 10.9176 7.06762V5.93429C10.9176 5.80673 10.8654 5.6844 10.7727 5.5942C10.6799 5.504 10.5541 5.45333 10.4229 5.45333H9.45306V6.41524H9.9311V6.58476H2.68996V6.41524H3.00441C3.08389 6.41542 3.16223 6.39679 3.23265 6.36095L3.22971 6.3619V5.50667C3.15979 5.47146 3.08217 5.45317 3.00343 5.45333H2.19331C2.06227 5.45359 1.9367 5.50437 1.84414 5.59454C1.75158 5.68471 1.70057 5.80689 1.70057 5.93429Z" fill="#56596D"/>
</svg>
