<svg width="48" height="48" viewBox="0 0 48 48" fill="none" xmlns="http://www.w3.org/2000/svg">
<path d="M42 28.5H22.245L26.115 24.615L24 22.5L16.5 30L24 37.5L26.115 35.385L22.245 31.5H42V28.5Z" fill="#455956"/>
<path d="M36 21V15C36.0011 14.8026 35.9633 14.6069 35.8887 14.4242C35.814 14.2414 35.704 14.0752 35.565 13.935L25.065 3.43503C24.9248 3.296 24.7586 3.18602 24.5759 3.11137C24.3931 3.03672 24.1974 2.99888 24 3.00003H9C8.20435 3.00003 7.44129 3.3161 6.87868 3.8787C6.31607 4.44131 6 5.20438 6 6.00003V42C6 42.7957 6.31607 43.5587 6.87868 44.1213C7.44129 44.684 8.20435 45 9 45H33C33.7956 45 34.5587 44.684 35.1213 44.1213C35.6839 43.5587 36 42.7957 36 42V39H33V42H9V6.00003H21V15C21 15.7957 21.3161 16.5587 21.8787 17.1213C22.4413 17.684 23.2044 18 24 18H33V21H36ZM24 15V6.61502L32.385 15H24Z" fill="#455956"/>
</svg>
