<svg width="34" height="34" viewBox="0 0 34 34" fill="none" xmlns="http://www.w3.org/2000/svg">
<path d="M16.6667 25C17.1389 25 17.535 24.84 17.855 24.52C18.175 24.2 18.3344 23.8044 18.3333 23.3333C18.3322 22.8622 18.1722 22.4667 17.8533 22.1467C17.5344 21.8267 17.1389 21.6667 16.6667 21.6667C16.1944 21.6667 15.7989 21.8267 15.48 22.1467C15.1611 22.4667 15.0011 22.8622 15 23.3333C14.9989 23.8044 15.1589 24.2006 15.48 24.5217C15.8011 24.8428 16.1967 25.0022 16.6667 25ZM15 18.3333H18.3333V8.33333H15V18.3333ZM16.6667 33.3333C14.3611 33.3333 12.1944 32.8956 10.1667 32.02C8.13889 31.1444 6.375 29.9572 4.875 28.4583C3.375 26.9594 2.18778 25.1956 1.31334 23.1667C0.438891 21.1378 0.00111322 18.9711 2.1097e-06 16.6667C-0.001109 14.3622 0.436669 12.1956 1.31334 10.1667C2.19 8.13778 3.37722 6.37389 4.875 4.875C6.37278 3.37611 8.13667 2.18889 10.1667 1.31333C12.1967 0.437778 14.3633 0 16.6667 0C18.97 0 21.1367 0.437778 23.1667 1.31333C25.1967 2.18889 26.9606 3.37611 28.4583 4.875C29.9561 6.37389 31.1439 8.13778 32.0217 10.1667C32.8994 12.1956 33.3367 14.3622 33.3333 16.6667C33.33 18.9711 32.8922 21.1378 32.02 23.1667C31.1478 25.1956 29.9606 26.9594 28.4583 28.4583C26.9561 29.9572 25.1922 31.145 23.1667 32.0217C21.1411 32.8983 18.9744 33.3356 16.6667 33.3333ZM16.6667 30C20.3889 30 23.5417 28.7083 26.125 26.125C28.7083 23.5417 30 20.3889 30 16.6667C30 12.9444 28.7083 9.79167 26.125 7.20833C23.5417 4.625 20.3889 3.33333 16.6667 3.33333C12.9444 3.33333 9.79167 4.625 7.20834 7.20833C4.625 9.79167 3.33334 12.9444 3.33334 16.6667C3.33334 20.3889 4.625 23.5417 7.20834 26.125C9.79167 28.7083 12.9444 30 16.6667 30Z" fill="#455956"/>
</svg>
