<svg width="24" height="24" viewBox="0 0 24 24" fill="none" xmlns="http://www.w3.org/2000/svg">
<path fill-rule="evenodd" clip-rule="evenodd" d="M17.5 12C18 12 18.5 11.92 19 11.79V17L21 19V20H3V19L5 17V11C5 7.90001 7.03 5.17001 10 4.29001V4.00001C10 2.90001 10.9 2.00001 12 2.00001C12.2871 1.99934 12.5707 2.06272 12.8302 2.18555C13.0897 2.30838 13.3185 2.48755 13.5 2.71001C12.58 3.70001 12 5.03001 12 6.50001C12.0026 7.95788 12.583 9.3553 13.6138 10.3862C14.6447 11.4171 16.0421 11.9974 17.5 12ZM14 21C14 22.11 13.11 23 12 23C11.4696 23 10.9609 22.7893 10.5858 22.4142C10.2107 22.0391 10 21.5304 10 21H14Z" fill="#455956"/>
<path d="M21 6.50001C21 8.43001 19.43 10 17.5 10C15.57 10 14 8.43001 14 6.50001C14 4.57001 15.57 3.00001 17.5 3.00001C19.43 3.00001 21 4.57001 21 6.50001Z" fill="#FF383C"/>
</svg>
