<svg width="14" height="17" viewBox="0 0 14 17" fill="none" xmlns="http://www.w3.org/2000/svg">
<path d="M0 1.875C0 1.37772 0.197544 0.900805 0.549175 0.549175C0.900806 0.197544 1.37772 0 1.875 0H9.375C9.87228 0 10.3492 0.197544 10.7008 0.549175C11.0525 0.900805 11.25 1.37772 11.25 1.875V12.7083C11.25 13.2056 11.0525 13.6825 10.7008 14.0342C10.3492 14.3858 9.87228 14.5833 9.375 14.5833H1.875C1.37772 14.5833 0.900806 14.3858 0.549175 14.0342C0.197544 13.6825 0 13.2056 0 12.7083V1.875ZM3.1225 2.91667C2.95717 2.91733 2.79884 2.98347 2.68217 3.10061C2.5655 3.21775 2.5 3.37634 2.5 3.54167C2.5 3.88667 2.77833 4.16667 3.1225 4.16667H8.1275C8.29283 4.16601 8.45116 4.09987 8.56783 3.98273C8.6845 3.86559 8.75 3.70699 8.75 3.54167C8.75 3.37634 8.6845 3.21775 8.56783 3.10061C8.45116 2.98347 8.29283 2.91733 8.1275 2.91667H3.1225ZM8.1275 10.4167H3.1225C2.95717 10.4173 2.79884 10.4835 2.68217 10.6006C2.5655 10.7177 2.5 10.8763 2.5 11.0417C2.5 11.3867 2.77833 11.6667 3.1225 11.6667H8.1275C8.29283 11.666 8.45116 11.5999 8.56783 11.4827C8.6845 11.3656 8.75 11.207 8.75 11.0417C8.75 10.8763 8.6845 10.7177 8.56783 10.6006C8.45116 10.4835 8.29283 10.4173 8.1275 10.4167ZM3.1225 6.66667C2.95717 6.66733 2.79884 6.73347 2.68217 6.85061C2.5655 6.96775 2.5 7.12634 2.5 7.29167C2.5 7.63667 2.77833 7.91667 3.1225 7.91667H8.1275C8.29283 7.91601 8.45116 7.84986 8.56783 7.73273C8.6845 7.61559 8.75 7.45699 8.75 7.29167C8.75 7.12634 8.6845 6.96775 8.56783 6.85061C8.45116 6.73347 8.29283 6.66733 8.1275 6.66667H3.1225ZM2.19083 15.4167C2.32006 15.7822 2.55942 16.0987 2.87596 16.3225C3.19249 16.5464 3.57064 16.6666 3.95833 16.6667H9.375C9.89482 16.6667 10.4095 16.5643 10.8898 16.3654C11.37 16.1664 11.8064 15.8749 12.174 15.5073C12.5415 15.1397 12.8331 14.7034 13.032 14.2231C13.2309 13.7429 13.3333 13.2281 13.3333 12.7083V3.95833C13.3335 3.5705 13.2133 3.19217 12.9894 2.87547C12.7656 2.55877 12.449 2.31928 12.0833 2.19V12.7083C12.0833 13.4266 11.798 14.1155 11.2901 14.6234C10.7822 15.1313 10.0933 15.4167 9.375 15.4167H2.19083Z" fill="#455956"/>
</svg>
