<svg width="29" height="21" viewBox="0 0 29 21" fill="none" xmlns="http://www.w3.org/2000/svg">
<path d="M14.3332 6.33333L6.33325 14.3333M6.33325 6.33333L14.3332 14.3333M16.9999 1C17.6625 1.00004 18.3013 1.24672 18.7919 1.692L27.2292 9.34533C27.367 9.47031 27.477 9.62272 27.5523 9.79275C27.6276 9.96279 27.6665 10.1467 27.6665 10.3327C27.6665 10.5186 27.6276 10.7025 27.5523 10.8726C27.477 11.0426 27.367 11.195 27.2292 11.32L18.7919 18.9747C18.3013 19.4199 17.6625 19.6666 16.9999 19.6667H3.66658C2.95934 19.6667 2.28106 19.3857 1.78096 18.8856C1.28086 18.3855 0.999915 17.7072 0.999915 17V3.66667C0.999915 2.95942 1.28086 2.28115 1.78096 1.78105C2.28106 1.28095 2.95934 1 3.66658 1H16.9999Z" stroke="#C74848" stroke-width="2" stroke-linecap="round" stroke-linejoin="round"/>
</svg>
