<svg width="20" height="20" viewBox="0 0 20 20" fill="none" xmlns="http://www.w3.org/2000/svg">
<path d="M15.8333 1.6665C16.2754 1.6665 16.6993 1.8421 17.0118 2.15466C17.3244 2.46722 17.5 2.89114 17.5 3.33317V13.3332C17.5 13.7752 17.3244 14.1991 17.0118 14.5117C16.6993 14.8242 16.2754 14.9998 15.8333 14.9998H14.1667V16.6665C14.1667 17.1085 13.9911 17.5325 13.6785 17.845C13.3659 18.1576 12.942 18.3332 12.5 18.3332H4.16667C3.72464 18.3332 3.30072 18.1576 2.98816 17.845C2.67559 17.5325 2.5 17.1085 2.5 16.6665V6.6665C2.5 6.22448 2.67559 5.80055 2.98816 5.48799C3.30072 5.17543 3.72464 4.99984 4.16667 4.99984H5.83333V3.33317C5.83333 2.89114 6.00893 2.46722 6.32149 2.15466C6.63405 1.8421 7.05797 1.6665 7.5 1.6665H15.8333ZM8.33333 12.4998H6.66667C6.45427 12.5001 6.24997 12.5814 6.09553 12.7272C5.94108 12.873 5.84814 13.0723 5.83569 13.2843C5.82324 13.4964 5.89223 13.7052 6.02855 13.868C6.16488 14.0309 6.35825 14.1356 6.56917 14.1607L6.66667 14.1665H8.33333C8.54573 14.1663 8.75003 14.0849 8.90447 13.9391C9.05892 13.7933 9.15186 13.594 9.16431 13.382C9.17676 13.17 9.10777 12.9612 8.97145 12.7983C8.83512 12.6354 8.64175 12.5308 8.43083 12.5057L8.33333 12.4998ZM15.8333 3.33317H7.5V4.99984H12.5C12.942 4.99984 13.3659 5.17543 13.6785 5.48799C13.9911 5.80055 14.1667 6.22448 14.1667 6.6665V13.3332H15.8333V3.33317ZM10 9.1665H6.66667C6.44565 9.1665 6.23369 9.2543 6.07741 9.41058C5.92113 9.56686 5.83333 9.77882 5.83333 9.99984C5.83333 10.2209 5.92113 10.4328 6.07741 10.5891C6.23369 10.7454 6.44565 10.8332 6.66667 10.8332H10C10.221 10.8332 10.433 10.7454 10.5893 10.5891C10.7455 10.4328 10.8333 10.2209 10.8333 9.99984C10.8333 9.77882 10.7455 9.56686 10.5893 9.41058C10.433 9.2543 10.221 9.1665 10 9.1665Z" fill="#BA7A3A"/>
</svg>
