<svg width="61" height="28" viewBox="0 0 61 28" fill="none" xmlns="http://www.w3.org/2000/svg">
<path d="M0.146447 24.3536C-0.0488155 24.1583 -0.0488155 23.8417 0.146447 23.6464L3.32843 20.4645C3.52369 20.2692 3.84027 20.2692 4.03553 20.4645C4.2308 20.6597 4.2308 20.9763 4.03553 21.1716L1.20711 24L4.03553 26.8284C4.2308 27.0237 4.2308 27.3403 4.03553 27.5355C3.84027 27.7308 3.52369 27.7308 3.32843 27.5355L0.146447 24.3536ZM0.5 24V23.5H1.5V24V24.5H0.5V24ZM3.5 24V23.5H5.5V24V24.5H3.5V24ZM7.5 24V23.5H9.5V24V24.5H7.5V24ZM11.5 24V23.5H13.5V24V24.5H11.5V24ZM15.5 24V23.5H17.5V24V24.5H15.5V24ZM19.5 24V23.5H21.5V24V24.5H19.5V24ZM23.5 24V23.5H25.5V24V24.5H23.5V24ZM27.5 24V23.5H29.5V24V24.5H27.5V24ZM31.5 24V23.5H33.5V24V24.5H31.5V24ZM35.5 24V23.5H37.5V24V24.5H35.5V24ZM39.5 24V23.5H41.5V24V24.5H39.5V24ZM43.5 24V23.5H45.5V24V24.5H43.5V24ZM47.5 24V23.5H49.5V24V24.5H47.5V24ZM51.5 24V23.5H53.5V24V24.5H51.5V24ZM55.5 24V23.5H57.5V24V24.5H55.5V24ZM59.5 24V23.5H60.5V24V24.5H59.5V24Z" fill="#9CB2AE"/>
</svg>
