<svg width="40" height="40" viewBox="0 0 40 40" fill="none" xmlns="http://www.w3.org/2000/svg">
<path d="M5 21.6673V13.334H35V21.6673C35 27.9523 35 31.0956 33.0467 33.0473C31.0933 34.999 27.9517 35.0007 21.6667 35.0007H18.3333C12.0483 35.0007 8.905 35.0006 6.95333 33.0473C5.00167 31.094 5 27.9523 5 21.6673Z" stroke="#455956" stroke-width="2" stroke-linecap="round" stroke-linejoin="round"/>
<path d="M5 13.3333L6.44167 10.1283C7.56167 7.64167 8.12 6.4 9.25333 5.7C10.3867 5 11.8417 5 14.75 5H25.25C28.1583 5 29.6117 5 30.7467 5.7C31.88 6.4 32.4383 7.64167 33.5583 10.1283L35 13.3333M20 13.3333V5" stroke="#455956" stroke-width="2" stroke-linecap="round"/>
<path d="M14.1667 22.4993H23.3333C24.2174 22.4993 25.0652 22.8505 25.6904 23.4757C26.3155 24.1008 26.6667 24.9486 26.6667 25.8327C26.6667 26.7167 26.3155 27.5646 25.6904 28.1897C25.0652 28.8148 24.2174 29.166 23.3333 29.166H21.6667M16.6667 19.166L13.3333 22.4993L16.6667 25.8327" stroke="#455956" stroke-width="2" stroke-linecap="round" stroke-linejoin="round"/>
</svg>
