<svg width="12" height="12" viewBox="0 0 12 12" fill="none" xmlns="http://www.w3.org/2000/svg">
<g clip-path="url(#clip0_1305_5213)">
<path d="M11.1063 9.60602C11.0388 10.1518 11.0092 10.3884 10.7571 10.9205L6.88686 11.7196C6.97584 11.1445 7.0945 10.7011 7.28726 10.435L11.1063 9.60602ZM5.71545 5.84249L6.87205 5.59132V1.93659C7.30296 1.45285 7.56786 1.23569 8.08801 0.961127V5.32732L11.1063 4.67192C11.0388 5.21772 11.0092 5.45421 10.7571 5.9863L8.08801 6.55062V7.778L11.1063 7.13913C11.0388 7.685 11.0092 7.92149 10.7571 8.45351L8.08801 9.00468V9.01624L6.87205 9.26747V6.80766L5.71545 7.05219V8.60236L5.69624 8.60632C5.43026 9.07272 5.05431 9.63296 4.69229 10.0803L0.893555 10.8036C0.927614 10.3148 0.998784 10.0396 1.21981 9.54724L4.4995 8.83636V7.30924L1.45973 7.95206C1.49379 7.46326 1.56491 7.18809 1.78592 6.69577L4.4995 6.10649V1.25671C4.93041 0.772982 5.19531 0.55582 5.71545 0.28125V5.84249Z" fill="black"/>
</g>
<defs>
<clipPath id="clip0_1305_5213">
<rect width="12" height="12" fill="white"/>
</clipPath>
</defs>
</svg>
