<svg width="16" height="16" viewBox="0 0 16 16" fill="none" xmlns="http://www.w3.org/2000/svg">
<path d="M14.8084 12.808C14.7184 13.5358 14.6789 13.8512 14.3428 14.5606L9.18248 15.6261C9.30112 14.8594 9.45933 14.2681 9.71635 13.9134L14.8084 12.808ZM7.62061 7.78999L9.16273 7.45509V2.58211C9.73729 1.93714 10.0905 1.64759 10.784 1.2815V7.10309L14.8084 6.22922C14.7184 6.95697 14.6789 7.27229 14.3428 7.98173L10.784 8.73416V10.3707L14.8084 9.51884C14.7184 10.2467 14.6789 10.562 14.3428 11.2713L10.784 12.0062V12.0216L9.16273 12.3566V9.07688L7.62061 9.40292V11.4698L7.59499 11.4751C7.24035 12.097 6.73907 12.8439 6.25639 13.4405L1.19141 14.4048C1.23682 13.7531 1.33171 13.3861 1.62641 12.7296L5.99933 11.7818V9.74565L1.94631 10.6028C1.99172 9.95101 2.08655 9.58411 2.38123 8.92769L5.99933 8.14199V1.67561C6.57388 1.03064 6.92707 0.741094 7.62061 0.375V7.78999Z" fill="#56596D"/>
</svg>
