<svg width="19" height="19" viewBox="0 0 19 19" fill="none" xmlns="http://www.w3.org/2000/svg">
<path d="M14.4279 13.1553L18.2826 17.0091L17.0091 18.2826L13.1553 14.4279C11.7214 15.5774 9.9378 16.2026 8.1 16.2C3.6288 16.2 0 12.5712 0 8.1C0 3.6288 3.6288 0 8.1 0C12.5712 0 16.2 3.6288 16.2 8.1C16.2026 9.9378 15.5774 11.7214 14.4279 13.1553ZM12.6225 12.4875C13.7645 11.3127 14.4023 9.73833 14.4 8.1C14.4 4.6197 11.5803 1.8 8.1 1.8C4.6197 1.8 1.8 4.6197 1.8 8.1C1.8 11.5803 4.6197 14.4 8.1 14.4C9.73833 14.4023 11.3127 13.7645 12.4875 12.6225L12.6225 12.4875Z" fill="#312783"/>
</svg>
