<svg width="32" height="32" viewBox="0 0 32 32" fill="none" xmlns="http://www.w3.org/2000/svg">
<path fill-rule="evenodd" clip-rule="evenodd" d="M13.746 2.00008H18.206C18.878 1.99008 19.536 2.21008 20.066 2.62408C20.6 3.04408 20.97 3.63408 21.106 4.29808L21.496 6.16808C21.6653 6.25875 21.832 6.35208 21.996 6.44808L23.886 5.82808C24.2748 5.70259 24.6854 5.65896 25.0919 5.69992C25.4984 5.74088 25.892 5.86555 26.248 6.06608C26.688 6.31408 27.058 6.67008 27.316 7.10608L29.566 10.8181C29.9297 11.3933 30.0732 12.0806 29.9699 12.7532C29.8666 13.4259 29.5235 14.0385 29.004 14.4781H29L27.516 15.7441V16.2601L28.982 17.5661C29.4915 17.9985 29.8309 18.5977 29.9397 19.2571C30.0485 19.9164 29.9196 20.5929 29.576 21.1661L27.396 24.8861V24.8901C27.1366 25.3242 26.7689 25.6834 26.3289 25.9327C25.8889 26.182 25.3917 26.3127 24.886 26.3121C24.5732 26.3138 24.2621 26.2665 23.964 26.1721L23.954 26.1681L22.08 25.5501C21.9133 25.6487 21.744 25.7428 21.572 25.8321L21.184 27.7001C21.047 28.3644 20.6784 28.9584 20.144 29.3761C19.6127 29.7918 18.9545 30.0121 18.28 30.0001H13.784C13.1108 30.0112 12.4543 29.7909 11.924 29.3761C11.3899 28.9589 11.0214 28.3657 10.884 27.7021L10.494 25.8301C10.3251 25.7407 10.1584 25.6474 9.99399 25.5501L8.10399 26.1701C7.71518 26.2956 7.30459 26.3392 6.89809 26.2982C6.49158 26.2573 6.09796 26.1326 5.74199 25.9321C5.30139 25.6863 4.9331 25.329 4.67399 24.8961L2.42199 21.1761C2.0728 20.6125 1.93333 19.944 2.02806 19.2878C2.12279 18.6317 2.44567 18.0299 2.93999 17.5881L4.43399 15.7041L3.00799 14.4341C2.49782 14.0012 2.15817 13.4011 2.04972 12.7409C1.94127 12.0807 2.0711 11.4034 2.41599 10.8301L2.41999 10.8261L4.67399 7.10608C4.92964 6.67606 5.29219 6.31949 5.7264 6.07102C6.16062 5.82254 6.65172 5.69063 7.15199 5.68808C7.45332 5.67208 7.75066 5.70075 8.04399 5.77408L8.08799 5.78608L9.95799 6.44408C10.122 6.34808 10.2887 6.25608 10.458 6.16808L10.846 4.30008C10.9829 3.63577 11.3516 3.04175 11.886 2.62408C12.414 2.21008 13.074 1.99008 13.746 2.00008ZM16 12.0001C14.9391 12.0001 13.9217 12.4215 13.1716 13.1717C12.4214 13.9218 12 14.9392 12 16.0001C12 17.0609 12.4214 18.0784 13.1716 18.8285C13.9217 19.5787 14.9391 20.0001 16 20.0001C17.0609 20.0001 18.0783 19.5787 18.8284 18.8285C19.5786 18.0784 20 17.0609 20 16.0001C20 14.9392 19.5786 13.9218 18.8284 13.1717C18.0783 12.4215 17.0609 12.0001 16 12.0001ZM9.99999 16.0001C9.99999 14.4088 10.6321 12.8827 11.7574 11.7574C12.8826 10.6322 14.4087 10.0001 16 10.0001C17.5913 10.0001 19.1174 10.6322 20.2426 11.7574C21.3678 12.8827 22 14.4088 22 16.0001C22 17.5914 21.3678 19.1175 20.2426 20.2427C19.1174 21.3679 17.5913 22.0001 16 22.0001C14.4087 22.0001 12.8826 21.3679 11.7574 20.2427C10.6321 19.1175 9.99999 17.5914 9.99999 16.0001Z" fill="#455956"/>
</svg>
