<svg width="24" height="24" viewBox="0 0 24 24" fill="none" xmlns="http://www.w3.org/2000/svg">
<path d="M12.22 2.00073H11.78C11.2496 2.00073 10.7409 2.21145 10.3658 2.58652C9.99072 2.96159 9.78 3.4703 9.78 4.00073V4.18073C9.77964 4.53146 9.68706 4.87592 9.51154 5.17957C9.33602 5.48322 9.08374 5.73537 8.78 5.91073L8.35 6.16073C8.04596 6.33627 7.70108 6.42868 7.35 6.42868C6.99893 6.42868 6.65404 6.33627 6.35 6.16073L6.2 6.08073C5.74107 5.816 5.19584 5.74418 4.684 5.88104C4.17217 6.0179 3.73555 6.35227 3.47 6.81073L3.25 7.19073C2.98526 7.64967 2.91345 8.1949 3.05031 8.70673C3.18717 9.21857 3.52154 9.65518 3.98 9.92073L4.13 10.0207C4.43228 10.1952 4.68362 10.4458 4.85905 10.7476C5.03448 11.0493 5.1279 11.3917 5.13 11.7407V12.2507C5.1314 12.6032 5.03965 12.9497 4.86405 13.2552C4.68844 13.5608 4.43521 13.8145 4.13 13.9907L3.98 14.0807C3.52154 14.3463 3.18717 14.7829 3.05031 15.2947C2.91345 15.8066 2.98526 16.3518 3.25 16.8107L3.47 17.1907C3.73555 17.6492 4.17217 17.9836 4.684 18.1204C5.19584 18.2573 5.74107 18.1855 6.2 17.9207L6.35 17.8407C6.65404 17.6652 6.99893 17.5728 7.35 17.5728C7.70108 17.5728 8.04596 17.6652 8.35 17.8407L8.78 18.0907C9.08374 18.2661 9.33602 18.5182 9.51154 18.8219C9.68706 19.1255 9.77964 19.47 9.78 19.8207V20.0007C9.78 20.5312 9.99072 21.0399 10.3658 21.4149C10.7409 21.79 11.2496 22.0007 11.78 22.0007H12.22C12.7504 22.0007 13.2591 21.79 13.6342 21.4149C14.0093 21.0399 14.22 20.5312 14.22 20.0007V19.8207C14.2204 19.47 14.3129 19.1255 14.4885 18.8219C14.664 18.5182 14.9163 18.2661 15.22 18.0907L15.65 17.8407C15.954 17.6652 16.2989 17.5728 16.65 17.5728C17.0011 17.5728 17.346 17.6652 17.65 17.8407L17.8 17.9207C18.2589 18.1855 18.8042 18.2573 19.316 18.1204C19.8278 17.9836 20.2645 17.6492 20.53 17.1907L20.75 16.8007C21.0147 16.3418 21.0866 15.7966 20.9497 15.2847C20.8128 14.7729 20.4785 14.3363 20.02 14.0707L19.87 13.9907C19.5648 13.8145 19.3116 13.5608 19.136 13.2552C18.9604 12.9497 18.8686 12.6032 18.87 12.2507V11.7507C18.8686 11.3983 18.9604 11.0518 19.136 10.7462C19.3116 10.4407 19.5648 10.1869 19.87 10.0107L20.02 9.92073C20.4785 9.65518 20.8128 9.21857 20.9497 8.70673C21.0866 8.1949 21.0147 7.64967 20.75 7.19073L20.53 6.81073C20.2645 6.35227 19.8278 6.0179 19.316 5.88104C18.8042 5.74418 18.2589 5.816 17.8 6.08073L17.65 6.16073C17.346 6.33627 17.0011 6.42868 16.65 6.42868C16.2989 6.42868 15.954 6.33627 15.65 6.16073L15.22 5.91073C14.9163 5.73537 14.664 5.48322 14.4885 5.17957C14.3129 4.87592 14.2204 4.53146 14.22 4.18073V4.00073C14.22 3.4703 14.0093 2.96159 13.6342 2.58652C13.2591 2.21145 12.7504 2.00073 12.22 2.00073Z" stroke="#56596D" stroke-width="2.4" stroke-linecap="round" stroke-linejoin="round"/>
<path d="M12 15.0005C13.6569 15.0005 15 13.6573 15 12.0005C15 10.3436 13.6569 9.00049 12 9.00049C10.3431 9.00049 9 10.3436 9 12.0005C9 13.6573 10.3431 15.0005 12 15.0005Z" stroke="#56596D" stroke-width="2.4" stroke-linecap="round" stroke-linejoin="round"/>
</svg>
