<svg width="56" height="56" viewBox="0 0 56 56" fill="none" xmlns="http://www.w3.org/2000/svg">
<rect width="56" height="56" rx="11.2" fill="#F0D2F2"/>
<path d="M26.5599 41.5137C26.9977 41.7665 27.4943 41.8996 27.9999 41.8996C28.5054 41.8996 29.0021 41.7665 29.4399 41.5137L39.5199 35.7537C39.9573 35.5012 40.3205 35.1381 40.5733 34.7008C40.826 34.2636 40.9594 33.7676 40.9599 33.2625V21.7425C40.9594 21.2375 40.826 20.7414 40.5733 20.3042C40.3205 19.8669 39.9573 19.5038 39.5199 19.2513L29.4399 13.4913C29.0021 13.2385 28.5054 13.1055 27.9999 13.1055C27.4943 13.1055 26.9977 13.2385 26.5599 13.4913L16.4799 19.2513C16.0425 19.5038 15.6792 19.8669 15.4265 20.3042C15.1737 20.7414 15.0404 21.2375 15.0399 21.7425V33.2625C15.0404 33.7676 15.1737 34.2636 15.4265 34.7008C15.6792 35.1381 16.0425 35.5012 16.4799 35.7537L26.5599 41.5137Z" stroke="#8721A9" stroke-width="2" stroke-linecap="round" stroke-linejoin="round"/>
<path d="M27.9999 41.9039V27.5039" stroke="#8721A9" stroke-width="2" stroke-linecap="round" stroke-linejoin="round"/>
<path d="M15.4575 20.3047L27.9999 27.5047L40.5423 20.3047" stroke="#8721A9" stroke-width="2" stroke-linecap="round" stroke-linejoin="round"/>
<path d="M21.5199 16.3711L34.4799 23.7871" stroke="#8721A9" stroke-width="2" stroke-linecap="round" stroke-linejoin="round"/>
</svg>
