<svg width="80" height="80" viewBox="0 0 80 80" fill="none" xmlns="http://www.w3.org/2000/svg">
<rect width="80" height="80" rx="40" fill="#064D47" fill-opacity="0.1"/>
<path fill-rule="evenodd" clip-rule="evenodd" d="M40 56C42.1012 56 44.1817 55.5861 46.1229 54.7821C48.0641 53.978 49.828 52.7994 51.3137 51.3137C52.7994 49.828 53.978 48.0641 54.7821 46.1229C55.5861 44.1817 56 42.1012 56 40C56 37.8989 55.5861 35.8183 54.7821 33.8771C53.978 31.9359 52.7994 30.172 51.3137 28.6863C49.828 27.2006 48.0641 26.022 46.1229 25.2179C44.1817 24.4139 42.1012 24 40 24C35.7565 24 31.6869 25.6857 28.6863 28.6863C25.6857 31.6869 24 35.7565 24 40C24 44.2435 25.6857 48.3131 28.6863 51.3137C31.6869 54.3143 35.7565 56 40 56ZM39.5876 46.4711L48.4764 35.8044L45.7458 33.5289L38.1013 42.7004L34.1458 38.7431L31.632 41.2569L36.9653 46.5902L38.3413 47.9662L39.5876 46.4711Z" fill="#122241"/>
</svg>
