<svg width="40" height="40" viewBox="0 0 40 40" fill="none" xmlns="http://www.w3.org/2000/svg">
<rect x="0.5" y="0.5" width="39" height="39" rx="7.5" fill="#FCFBFA"/>
<rect x="0.5" y="0.5" width="39" height="39" rx="7.5" stroke="#D8EBE7"/>
<path d="M27.5 20.75C25.5109 20.75 23.6032 19.9598 22.1967 18.5533C20.7902 17.1468 20 15.2391 20 13.25C20 11.2609 20.7902 9.35322 22.1967 7.9467C23.6032 6.54018 25.5109 5.75 27.5 5.75C29.4891 5.75 31.3968 6.54018 32.8033 7.9467C34.2098 9.35322 35 11.2609 35 13.25C35 15.2391 34.2098 17.1468 32.8033 18.5533C31.3968 19.9598 29.4891 20.75 27.5 20.75ZM26.5 8.5V12.25H22.75C22.5511 12.25 22.3603 12.329 22.2197 12.4697C22.079 12.6103 22 12.8011 22 13C22 13.1989 22.079 13.3897 22.2197 13.5303C22.3603 13.671 22.5511 13.75 22.75 13.75H26.5V17.5C26.5 17.6989 26.579 17.8897 26.7197 18.0303C26.8603 18.171 27.0511 18.25 27.25 18.25C27.4489 18.25 27.6397 18.171 27.7803 18.0303C27.921 17.8897 28 17.6989 28 17.5V13.75H31.75C31.9489 13.75 32.1397 13.671 32.2803 13.5303C32.421 13.3897 32.5 13.1989 32.5 13C32.5 12.8011 32.421 12.6103 32.2803 12.4697C32.1397 12.329 31.9489 12.25 31.75 12.25H28V8.5C28 8.30109 27.921 8.11032 27.7803 7.96967C27.6397 7.82902 27.4489 7.75 27.25 7.75C27.0511 7.75 26.8603 7.82902 26.7197 7.96967C26.579 8.11032 26.5 8.30109 26.5 8.5ZM33 20.375C32.39 20.845 31.72 21.24 31 21.545V29.25C31 29.54 30.95 29.817 30.86 30.075L21.768 20.982C21.5358 20.7498 21.2602 20.5656 20.9569 20.4399C20.6535 20.3142 20.3284 20.2495 20 20.2495C19.6716 20.2495 19.3465 20.3142 19.0431 20.4399C18.7398 20.5656 18.4642 20.7498 18.232 20.982L9.139 30.075C9.049 29.817 9 29.539 9 29.25V12.25C9 11.587 9.26339 10.9511 9.73223 10.4822C10.2011 10.0134 10.837 9.75 11.5 9.75H19.206C19.5082 9.0357 19.9015 8.36347 20.376 7.75H11.5C10.3065 7.75 9.16193 8.22411 8.31802 9.06802C7.47411 9.91193 7 11.0565 7 12.25V29.25C7 30.4435 7.47411 31.5881 8.31802 32.432C9.16193 33.2759 10.3065 33.75 11.5 33.75H28.5C29.6935 33.75 30.8381 33.2759 31.682 32.432C32.5259 31.5881 33 30.4435 33 29.25V20.375ZM10.5 31.542L19.646 22.396C19.7398 22.3023 19.8669 22.2496 19.9995 22.2496C20.1321 22.2496 20.2592 22.3023 20.353 22.396L29.5 31.542C29.194 31.676 28.856 31.75 28.501 31.75H11.501C11.1569 31.7502 10.8155 31.6794 10.5 31.542ZM18 15.75C18 14.8217 17.6313 13.9315 16.9749 13.2751C16.3185 12.6187 15.4283 12.25 14.5 12.25C13.5717 12.25 12.6815 12.6187 12.0251 13.2751C11.3687 13.9315 11 14.8217 11 15.75C11 16.6783 11.3687 17.5685 12.0251 18.2249C12.6815 18.8813 13.5717 19.25 14.5 19.25C15.4283 19.25 16.3185 18.8813 16.9749 18.2249C17.6313 17.5685 18 16.6783 18 15.75ZM14.5 14.25C14.697 14.25 14.892 14.2888 15.074 14.3642C15.256 14.4396 15.4214 14.5501 15.5607 14.6893C15.6999 14.8286 15.8104 14.994 15.8858 15.176C15.9612 15.358 16 15.553 16 15.75C16 15.947 15.9612 16.142 15.8858 16.324C15.8104 16.506 15.6999 16.6714 15.5607 16.8107C15.4214 16.9499 15.256 17.0604 15.074 17.1358C14.892 17.2112 14.697 17.25 14.5 17.25C14.1022 17.25 13.7206 17.092 13.4393 16.8107C13.158 16.5294 13 16.1478 13 15.75C13 15.3522 13.158 14.9706 13.4393 14.6893C13.7206 14.408 14.1022 14.25 14.5 14.25Z" fill="#455956"/>
</svg>
