<svg width="15" height="17" viewBox="0 0 15 17" fill="none" xmlns="http://www.w3.org/2000/svg">
<path fill-rule="evenodd" clip-rule="evenodd" d="M4.11167 0H10.8883C11.6267 0 12.2633 1.24176e-08 12.7733 0.0683333C13.3192 0.141667 13.8433 0.3075 14.2675 0.7325C14.6925 1.1575 14.8583 1.68083 14.9317 2.22667C15 2.73667 15 3.37333 15 4.11167V4.95833C15 5.17935 14.9122 5.39131 14.7559 5.54759C14.5996 5.70387 14.3877 5.79167 14.1667 5.79167C13.9457 5.79167 13.7337 5.70387 13.5774 5.54759C13.4211 5.39131 13.3333 5.17935 13.3333 4.95833V4.16667C13.3333 3.3575 13.3317 2.83417 13.28 2.44917C13.2308 2.0875 13.1525 1.97417 13.0892 1.91083C13.0258 1.8475 12.9125 1.76917 12.5508 1.72C12.1667 1.66833 11.6425 1.66667 10.8333 1.66667H8.33333V15.8333C8.33333 16.0543 8.24554 16.2663 8.08926 16.4226C7.93297 16.5789 7.72101 16.6667 7.5 16.6667C7.27899 16.6667 7.06702 16.5789 6.91074 16.4226C6.75446 16.2663 6.66667 16.0543 6.66667 15.8333V1.66667H4.16667C3.3575 1.66667 2.83417 1.66833 2.44917 1.72C2.0875 1.76917 1.97417 1.8475 1.91083 1.91083C1.8475 1.97417 1.76917 2.0875 1.72 2.44917C1.66833 2.83333 1.66667 3.3575 1.66667 4.16667V4.95833C1.66667 5.17935 1.57887 5.39131 1.42259 5.54759C1.26631 5.70387 1.05435 5.79167 0.833333 5.79167C0.61232 5.79167 0.400358 5.70387 0.244078 5.54759C0.0877973 5.39131 0 5.17935 0 4.95833V4.11167C0 3.37333 1.24176e-08 2.73667 0.0683333 2.22667C0.141667 1.68083 0.3075 1.15667 0.7325 0.7325C1.1575 0.3075 1.68083 0.141667 2.22667 0.0683333C2.73667 1.24176e-08 3.37333 0 4.11167 0Z" fill="#56596D"/>
</svg>
