<svg width="24" height="24" viewBox="0 0 24 24" fill="none" xmlns="http://www.w3.org/2000/svg">
<path d="M16 7C17.3261 7 18.5979 7.52678 19.5355 8.46447C20.4732 9.40215 21 10.6739 21 12C21 13.3261 20.4732 14.5979 19.5355 15.5355C18.5979 16.4732 17.3261 17 16 17H8C6.67392 17 5.40215 16.4732 4.46447 15.5355C3.52678 14.5979 3 13.3261 3 12C3 10.6739 3.52678 9.40215 4.46447 8.46447C5.40215 7.52678 6.67392 7 8 7H16ZM16 5H8C7.08075 5 6.1705 5.18106 5.32122 5.53284C4.47194 5.88463 3.70026 6.40024 3.05025 7.05025C2.40024 7.70026 1.88463 8.47194 1.53284 9.32122C1.18106 10.1705 1 11.0807 1 12C1 12.9193 1.18106 13.8295 1.53284 14.6788C1.88463 15.5281 2.40024 16.2997 3.05025 16.9497C3.70026 17.5998 4.47194 18.1154 5.32122 18.4672C6.1705 18.8189 7.08075 19 8 19H16C16.9193 19 17.8295 18.8189 18.6788 18.4672C19.5281 18.1154 20.2997 17.5998 20.9497 16.9497C21.5998 16.2997 22.1154 15.5281 22.4672 14.6788C22.8189 13.8295 23 12.9193 23 12C23 11.0807 22.8189 10.1705 22.4672 9.32122C22.1154 8.47194 21.5998 7.70026 20.9497 7.05025C20.2997 6.40024 19.5281 5.88463 18.6788 5.53284C17.8295 5.18106 16.9193 5 16 5Z" fill="#504C68"/>
<circle cx="16" cy="12" r="4" fill="#0CAD7A"/>
</svg>
