<svg width="56" height="56" viewBox="0 0 56 56" fill="none" xmlns="http://www.w3.org/2000/svg">
<rect width="56" height="56" rx="11.2" fill="#D7F1F8"/>
<path fill-rule="evenodd" clip-rule="evenodd" d="M22.714 20.6871C23.2343 20.1134 23.5769 19.401 23.7001 18.6363C23.8233 17.8717 23.7218 17.0877 23.4081 16.3796C23.0943 15.6715 22.5817 15.0697 21.9326 14.6473C21.2834 14.2249 20.5255 14 19.751 14C18.9765 14 18.2186 14.2249 17.5694 14.6473C16.9203 15.0697 16.4077 15.6715 16.0939 16.3796C15.7802 17.0877 15.6787 17.8717 15.8019 18.6363C15.9251 19.401 16.2677 20.1134 16.788 20.6871C16.628 20.7711 16.4747 20.8618 16.328 20.9591C15.414 21.5691 14.828 22.3671 14.462 23.1051C14.0258 23.9941 13.7831 24.9655 13.75 25.9551V29.9991C13.75 30.5296 13.9607 31.0383 14.3358 31.4133C14.7109 31.7884 15.2196 31.9991 15.75 31.9991H20.75C21.1001 31.2887 21.562 30.6391 22.118 30.0751L22.092 29.9991H15.75V25.9991C15.75 25.9991 15.75 21.9991 19.75 21.9991C21.764 21.9991 22.764 23.0131 23.26 24.0191C23.71 23.5111 24.246 23.0791 24.846 22.7471C24.3414 21.875 23.6029 21.1614 22.714 20.6871ZM19.75 19.9991C20.2804 19.9991 20.7891 19.7884 21.1642 19.4133C21.5393 19.0383 21.75 18.5296 21.75 17.9991C21.75 17.4687 21.5393 16.96 21.1642 16.5849C20.7891 16.2098 20.2804 15.9991 19.75 15.9991C19.2196 15.9991 18.7109 16.2098 18.3358 16.5849C17.9607 16.96 17.75 17.4687 17.75 17.9991C17.75 18.5296 17.9607 19.0383 18.3358 19.4133C18.7109 19.7884 19.2196 19.9991 19.75 19.9991ZM39.75 31.9991H34.75C34.3999 31.2887 33.938 30.6391 33.382 30.0751L33.408 29.9991H39.75V25.9991C39.75 25.9991 39.75 21.9991 35.75 21.9991C33.736 21.9991 32.736 23.0131 32.24 24.0191C31.7875 23.508 31.2512 23.0778 30.654 22.7471C31.1586 21.875 31.8971 21.1614 32.786 20.6871C32.2657 20.1134 31.9231 19.401 31.7999 18.6363C31.6767 17.8717 31.7782 17.0877 32.0919 16.3796C32.4057 15.6715 32.9183 15.0697 33.5674 14.6473C34.2166 14.2249 34.9745 14 35.749 14C36.5235 14 37.2814 14.2249 37.9306 14.6473C38.5797 15.0697 39.0923 15.6715 39.4061 16.3796C39.7198 17.0877 39.8213 17.8717 39.6981 18.6363C39.5749 19.401 39.2323 20.1134 38.712 20.6871C38.872 20.7711 39.0253 20.8618 39.172 20.9591C40.086 21.5691 40.672 22.3671 41.038 23.1051C41.4678 23.9723 41.7104 24.9201 41.75 25.8871V29.9991C41.75 30.5296 41.5393 31.0383 41.1642 31.4133C40.7891 31.7884 40.2804 31.9991 39.75 31.9991ZM35.75 19.9991C36.2804 19.9991 36.7891 19.7884 37.1642 19.4133C37.5393 19.0383 37.75 18.5296 37.75 17.9991C37.75 17.4687 37.5393 16.96 37.1642 16.5849C36.7891 16.2098 36.2804 15.9991 35.75 15.9991C35.2196 15.9991 34.7109 16.2098 34.3358 16.5849C33.9607 16.96 33.75 17.4687 33.75 17.9991C33.75 18.5296 33.9607 19.0383 34.3358 19.4133C34.7109 19.7884 35.2196 19.9991 35.75 19.9991Z" fill="#23A8CD"/>
<path fill-rule="evenodd" clip-rule="evenodd" d="M31.75 28C31.75 29.034 31.358 29.978 30.714 30.688C31.7217 31.2337 32.5347 32.0795 33.04 33.108C33.4779 33.9948 33.72 34.9654 33.75 35.954V40C33.75 40.5305 33.5393 41.0392 33.1642 41.4142C32.7891 41.7893 32.2804 42 31.75 42H23.75C23.2196 42 22.7109 41.7893 22.3358 41.4142C21.9607 41.0392 21.75 40.5305 21.75 40V35.956C21.751 35.8659 21.755 35.7759 21.762 35.686C21.8274 34.789 22.0651 33.9131 22.462 33.106C22.9668 32.0778 23.779 31.232 24.786 30.686C24.3499 30.2048 24.0375 29.6245 23.8758 28.9955C23.7142 28.3664 23.7082 27.7075 23.8583 27.0756C24.0084 26.4436 24.3101 25.8578 24.7374 25.3686C25.1646 24.8795 25.7046 24.5017 26.3106 24.268C26.9165 24.0342 27.5703 23.9516 28.2154 24.0272C28.8605 24.1027 29.4774 24.3342 30.013 24.7017C30.5486 25.0691 30.9866 25.5615 31.2892 26.1361C31.5919 26.7108 31.75 27.3505 31.75 28ZM23.75 36V40H31.75V36C31.75 36 31.75 32 27.75 32C23.75 32 23.75 36 23.75 36ZM29.75 28C29.75 28.5305 29.5393 29.0392 29.1642 29.4142C28.7891 29.7893 28.2804 30 27.75 30C27.2196 30 26.7109 29.7893 26.3358 29.4142C25.9607 29.0392 25.75 28.5305 25.75 28C25.75 27.4696 25.9607 26.9609 26.3358 26.5858C26.7109 26.2107 27.2196 26 27.75 26C28.2804 26 28.7891 26.2107 29.1642 26.5858C29.5393 26.9609 29.75 27.4696 29.75 28Z" fill="#23A8CD"/>
</svg>
