<svg width="56" height="56" viewBox="0 0 56 56" fill="none" xmlns="http://www.w3.org/2000/svg">
<rect width="56" height="56" rx="11.2" fill="#FDE4CC"/>
<path fill-rule="evenodd" clip-rule="evenodd" d="M34.65 40.5992C39.879 40.5992 44.1 38.4992 44.1 35.3492V15.3992C44.1 13.2992 39.9 11.1992 34.65 11.1992C29.4 11.1992 25.2 13.2992 25.2 15.3992V22.7492C27.657 23.7782 29.757 25.5002 31.248 27.6842C32.277 27.8858 33.411 27.9971 34.65 27.9971C37.401 27.9971 39.69 27.449 41.328 26.5565C41.5606 26.4287 41.7869 26.29 42.0063 26.1407V29.0387C42.0063 29.5322 41.6136 30.2987 40.3221 31.0043C39.0705 31.6868 37.1511 32.1887 34.6521 32.1887C34.1523 32.1887 33.6763 32.1698 33.2241 32.132C33.3921 32.8222 33.5041 33.5292 33.5601 34.253C33.9143 34.2726 34.2783 34.2824 34.6521 34.2824C37.4031 34.2824 39.6921 33.7343 41.3301 32.8418C41.5627 32.714 41.789 32.5753 42.0084 32.426V35.324C42.0084 35.8196 41.6955 36.5546 40.3473 37.2812C39.0201 37.9952 37.0293 38.474 34.6563 38.474C34.1733 38.474 33.7057 38.4544 33.2535 38.4152C33.0921 39.1132 32.8751 39.7972 32.6046 40.4606C33.2654 40.5348 33.9486 40.5719 34.6542 40.5719L34.65 40.5992ZM40.32 24.7232C41.6115 24.0176 42.0042 23.2511 42.0042 22.7576V19.8596C41.7872 20.008 41.5611 20.1466 41.3259 20.2754C39.6921 21.1679 37.3989 21.716 34.6479 21.716C31.8969 21.716 29.6079 21.1679 27.9699 20.2754C27.7374 20.1476 27.511 20.0089 27.2916 19.8596V22.7576C27.2916 23.2511 27.6843 24.0176 28.9758 24.7211C30.2274 25.4036 32.1468 25.9055 34.6458 25.9055C37.1448 25.9055 39.0558 25.4036 40.3158 24.7211L40.32 24.7232ZM27.3 16.4492C27.3 15.8444 27.5625 15.2627 28.0518 14.9078C28.3185 14.7146 28.6083 14.5214 28.8372 14.4164C29.4105 14.1518 32.2812 13.2971 34.6542 13.2971C37.0272 13.2971 39.0852 13.7738 40.4712 14.4164C40.7316 14.5361 41.0193 14.723 41.2734 14.9078C41.7585 15.2585 42.0084 15.836 42.0084 16.4345V16.4471C42.0084 16.9406 41.6157 17.7071 40.3242 18.4127C39.0726 19.0952 37.1532 19.5971 34.6542 19.5971C32.1552 19.5971 30.2442 19.0931 28.9842 18.4127C27.6927 17.7092 27.3 16.9406 27.3 16.4492Z" fill="#D28B45"/>
<path fill-rule="evenodd" clip-rule="evenodd" d="M29.4 35.3484C29.4 40.5774 25.179 44.7984 19.95 44.7984C14.721 44.7984 10.5 40.5774 10.5 35.3484C10.5 30.1194 14.721 25.8984 19.95 25.8984C25.179 25.8984 29.4 30.1194 29.4 35.3484ZM27.3 35.3484C27.3 39.4014 24.003 42.6984 19.95 42.6984C15.897 42.6984 12.6 39.4014 12.6 35.3484C12.6 31.2954 15.897 27.9984 19.95 27.9984C24.003 27.9984 27.3 31.2954 27.3 35.3484Z" fill="#D28B45"/>
</svg>
