<svg width="56" height="56" viewBox="0 0 56 56" fill="none" xmlns="http://www.w3.org/2000/svg">
<rect width="56" height="56" rx="11.2" fill="#FDE4CC"/>
<path d="M22.24 17.8961V19.8161H40.48V23.6168L38.35 30.3761H21.6359L19.2359 13.0938H13.6V15.0138H17.5641L19.9641 32.2961H39.7581L42.4 23.9121V17.8961H22.24ZM23.259 34.2344C22.2409 34.2355 21.2649 34.6405 20.545 35.3604C19.8251 36.0803 19.4202 37.0563 19.419 38.0744C19.419 39.0928 19.8236 40.0695 20.5437 40.7897C21.2639 41.5098 22.2406 41.9144 23.259 41.9144C24.2774 41.9144 25.2542 41.5098 25.9743 40.7897C26.6944 40.0695 27.099 39.0928 27.099 38.0744C27.0979 37.0563 26.693 36.0802 25.9731 35.3603C25.2532 34.6404 24.2771 34.2355 23.259 34.2344ZM23.259 39.9944C22.8793 39.9944 22.5081 39.8818 22.1923 39.6708C21.8766 39.4598 21.6305 39.16 21.4852 38.8091C21.3398 38.4583 21.3018 38.0723 21.3759 37.6998C21.45 37.3274 21.6329 36.9853 21.9014 36.7167C22.1699 36.4482 22.512 36.2654 22.8844 36.1913C23.2569 36.1172 23.6429 36.1552 23.9938 36.3005C24.3446 36.4459 24.6445 36.692 24.8554 37.0077C25.0664 37.3234 25.179 37.6947 25.179 38.0744C25.1784 38.5834 24.9759 39.0714 24.616 39.4313C24.256 39.7913 23.768 39.9938 23.259 39.9944ZM36.699 34.2344C35.6809 34.2355 34.7049 34.6405 33.985 35.3604C33.2651 36.0803 32.8602 37.0563 32.859 38.0744C32.859 39.0928 33.2636 40.0695 33.9837 40.7897C34.7039 41.5098 35.6806 41.9144 36.699 41.9144C37.7174 41.9144 38.6942 41.5098 39.4143 40.7897C40.1344 40.0695 40.539 39.0928 40.539 38.0744C40.5379 37.0563 40.133 36.0802 39.4131 35.3603C38.6932 34.6404 37.7171 34.2355 36.699 34.2344ZM36.699 39.9944C36.3193 39.9944 35.9481 39.8818 35.6323 39.6708C35.3166 39.4598 35.0705 39.16 34.9252 38.8091C34.7798 38.4583 34.7418 38.0723 34.8159 37.6998C34.89 37.3274 35.0729 36.9853 35.3414 36.7167C35.6099 36.4482 35.952 36.2654 36.3244 36.1913C36.6969 36.1172 37.0829 36.1552 37.4338 36.3005C37.7846 36.4459 38.0845 36.692 38.2954 37.0077C38.5064 37.3234 38.619 37.6947 38.619 38.0744C38.6184 38.5834 38.4159 39.0714 38.056 39.4313C37.696 39.7913 37.208 39.9938 36.699 39.9944Z" fill="#E6821D"/>
</svg>
