<svg width="48" height="48" viewBox="0 0 48 48" fill="none" xmlns="http://www.w3.org/2000/svg">
<path d="M38.388 18.1579V15.6419C38.388 14.5659 37.956 13.5339 37.184 12.7739C36.4089 12.0118 35.3651 11.5851 34.278 11.5859H13.72C12.6329 11.5851 11.5891 12.0118 10.814 12.7739C10.042 13.5339 9.60999 14.5659 9.60999 15.6419V18.1599" stroke="#455956" stroke-width="3" stroke-linecap="round" stroke-linejoin="round"/>
<path d="M13.722 11.586V9.558C13.722 8.482 14.156 7.45 14.926 6.688C15.7016 5.92535 16.7462 5.4986 17.834 5.5H30.166C31.2538 5.4986 32.2984 5.92535 33.074 6.688C33.844 7.448 34.278 8.482 34.278 9.558V11.586M35.84 17.672H12.16C8.48 17.672 5.5 20.612 5.5 24.244V35.928C5.5 39.558 8.48 42.5 12.16 42.5H35.84C39.52 42.5 42.5 39.558 42.5 35.928V24.244C42.5 20.614 39.52 17.672 35.84 17.672Z" stroke="#455956" stroke-width="3" stroke-linecap="round" stroke-linejoin="round"/>
<path d="M15.778 25.7861V27.8141C15.778 28.8901 16.21 29.9221 16.982 30.6821C17.752 31.4421 18.798 31.8701 19.888 31.8701H28.112C29.199 31.871 30.2428 31.4443 31.018 30.6821C31.79 29.9221 32.222 28.8901 32.222 27.8141V25.7861" stroke="#455956" stroke-width="3" stroke-linecap="round" stroke-linejoin="round"/>
</svg>
