<svg width="40" height="40" viewBox="0 0 40 40" fill="none" xmlns="http://www.w3.org/2000/svg">
<g filter="url(#filter0_d_676_5933)">
<rect x="4" y="3" width="32" height="32" rx="4" fill="#FAFCFC"/>
<rect x="4.5" y="3.5" width="31" height="31" rx="3.5" stroke="#D8EBE7"/>
<path d="M12.9993 23.25C12.8511 23.2499 12.7062 23.2058 12.583 23.1234C12.4598 23.041 12.3638 22.9239 12.3071 22.7869C12.2503 22.65 12.2355 22.4993 12.2644 22.3539C12.2933 22.2085 12.3646 22.0749 12.4693 21.97L19.4693 14.97C19.61 14.8295 19.8006 14.7507 19.9993 14.7507C20.1981 14.7507 20.3887 14.8295 20.5293 14.97L27.5293 21.97C27.6341 22.0749 27.7054 22.2085 27.7343 22.3539C27.7632 22.4993 27.7483 22.65 27.6916 22.7869C27.6349 22.9239 27.5389 23.041 27.4157 23.1234C27.2925 23.2058 27.1476 23.2499 26.9993 23.25H12.9993Z" fill="#455956"/>
</g>
<defs>
<filter id="filter0_d_676_5933" x="0" y="0" width="40" height="40" filterUnits="userSpaceOnUse" color-interpolation-filters="sRGB">
<feFlood flood-opacity="0" result="backgroundImageFix"/>
<feColorMatrix in="SourceAlpha" type="matrix" values="0 0 0 0 0 0 0 0 0 0 0 0 0 0 0 0 0 0 127 0" result="hardAlpha"/>
<feOffset dy="1"/>
<feGaussianBlur stdDeviation="2"/>
<feComposite in2="hardAlpha" operator="out"/>
<feColorMatrix type="matrix" values="0 0 0 0 0 0 0 0 0 0 0 0 0 0 0 0 0 0 0.2 0"/>
<feBlend mode="normal" in2="backgroundImageFix" result="effect1_dropShadow_676_5933"/>
<feBlend mode="normal" in="SourceGraphic" in2="effect1_dropShadow_676_5933" result="shape"/>
</filter>
</defs>
</svg>
