<svg width="48" height="48" viewBox="0 0 48 48" fill="none" xmlns="http://www.w3.org/2000/svg">
<path d="M32 42V38C32 35.8783 31.1571 33.8434 29.6569 32.3431C28.1566 30.8429 26.1217 30 24 30H12C9.87827 30 7.84344 30.8429 6.34315 32.3431C4.84285 33.8434 4 35.8783 4 38V42" stroke="#56596D" stroke-width="4" stroke-linecap="round" stroke-linejoin="round"/>
<path d="M31.9995 6.25537C33.715 6.70011 35.2343 7.7019 36.3189 9.1035C37.4034 10.5051 37.9919 12.2271 37.9919 13.9994C37.9919 15.7716 37.4034 17.4936 36.3189 18.8952C35.2343 20.2968 33.715 21.2986 31.9995 21.7434" stroke="#56596D" stroke-width="4" stroke-linecap="round" stroke-linejoin="round"/>
<path d="M43.9995 42.0003V38.0003C43.9982 36.2277 43.4082 34.5058 42.3222 33.1049C41.2363 31.704 39.7158 30.7034 37.9995 30.2603" stroke="#56596D" stroke-width="4" stroke-linecap="round" stroke-linejoin="round"/>
<path d="M18 22C22.4183 22 26 18.4183 26 14C26 9.58172 22.4183 6 18 6C13.5817 6 10 9.58172 10 14C10 18.4183 13.5817 22 18 22Z" stroke="#56596D" stroke-width="4" stroke-linecap="round" stroke-linejoin="round"/>
</svg>
