<svg width="15" height="17" viewBox="0 0 15 17" fill="none" xmlns="http://www.w3.org/2000/svg">
<path d="M13.3333 0C13.7754 0 14.1993 0.175595 14.5118 0.488155C14.8244 0.800716 15 1.22464 15 1.66667V11.6667C15 12.1087 14.8244 12.5326 14.5118 12.8452C14.1993 13.1577 13.7754 13.3333 13.3333 13.3333H11.6667V15C11.6667 15.442 11.4911 15.8659 11.1785 16.1785C10.8659 16.4911 10.442 16.6667 10 16.6667H1.66667C1.22464 16.6667 0.800716 16.4911 0.488155 16.1785C0.175595 15.8659 0 15.442 0 15V5C0 4.55797 0.175595 4.13405 0.488155 3.82149C0.800716 3.50893 1.22464 3.33333 1.66667 3.33333H3.33333V1.66667C3.33333 1.22464 3.50893 0.800716 3.82149 0.488155C4.13405 0.175595 4.55797 0 5 0H13.3333ZM5.83333 10.8333H4.16667C3.95427 10.8336 3.74997 10.9149 3.59553 11.0607C3.44108 11.2065 3.34814 11.4058 3.33569 11.6178C3.32324 11.8299 3.39223 12.0386 3.52855 12.2015C3.66488 12.3644 3.85825 12.4691 4.06917 12.4942L4.16667 12.5H5.83333C6.04573 12.4998 6.25003 12.4184 6.40447 12.2726C6.55892 12.1268 6.65186 11.9275 6.66431 11.7155C6.67676 11.5035 6.60777 11.2947 6.47145 11.1318C6.33512 10.9689 6.14175 10.8643 5.93083 10.8392L5.83333 10.8333ZM13.3333 1.66667H5V3.33333H10C10.442 3.33333 10.8659 3.50893 11.1785 3.82149C11.4911 4.13405 11.6667 4.55797 11.6667 5V11.6667H13.3333V1.66667ZM7.5 7.5H4.16667C3.94565 7.5 3.73369 7.5878 3.57741 7.74408C3.42113 7.90036 3.33333 8.11232 3.33333 8.33333C3.33333 8.55435 3.42113 8.76631 3.57741 8.92259C3.73369 9.07887 3.94565 9.16667 4.16667 9.16667H7.5C7.72101 9.16667 7.93297 9.07887 8.08926 8.92259C8.24554 8.76631 8.33333 8.55435 8.33333 8.33333C8.33333 8.11232 8.24554 7.90036 8.08926 7.74408C7.93297 7.5878 7.72101 7.5 7.5 7.5Z" fill="#BA7A3A"/>
</svg>
